<svg width="1920" height="180" viewBox="0 0 1920 180" fill="none" xmlns="http://www.w3.org/2000/svg">
<rect width="1920" height="180" fill="white"/>
<path d="M69.0738 80.9876L69.1478 77.782C71.5672 77.8317 73.4682 77.6826 74.8507 77.3347C76.2826 77.0365 77.3441 76.4402 78.0354 75.5456C78.7266 74.7007 79.2204 73.5079 79.5166 71.9673C79.8623 70.3769 80.1585 68.3641 80.4054 65.9289L67 13.6709H70.9994L77.8132 41.5518L82.4051 61.1579L86.4045 41.4027L92.4036 13.6709H96.477L84.5529 66.3017C84.0592 68.6375 83.5901 70.6751 83.1457 72.4146C82.7013 74.1043 82.1829 75.4959 81.5904 76.5893C80.9979 77.7323 80.2079 78.6269 79.2204 79.273C78.2329 79.9688 76.9244 80.4409 75.295 80.6894C73.6657 80.9379 71.5919 81.0373 69.0738 80.9876Z" fill="#1B1B1F"/>
<path d="M125.817 74.0546V46.0247C122.706 46.9192 119.768 47.3665 117.003 47.3665C113.893 47.3665 111.202 46.9441 108.931 46.0992C106.709 45.2046 104.981 43.8131 103.746 41.9245C102.512 39.9863 101.895 37.4517 101.895 34.3207V13.6709H105.968V34.3207C105.968 37.0541 106.487 39.1414 107.523 40.5827C108.56 42.0239 109.943 43.0179 111.671 43.5646C113.448 44.1113 115.423 44.3846 117.596 44.3846C119.176 44.3846 120.657 44.2604 122.04 44.0119C123.472 43.7137 124.731 43.3658 125.817 42.9682V13.6709H129.89V74.0546H125.817Z" fill="#1B1B1F"/>
<path d="M137.806 74.0546L150.397 13.6709H155.063L167.728 74.0546H163.654L160.544 57.3559H144.991L141.806 74.0546H137.806ZM145.583 54.374H160.025L152.767 18.5911L145.583 54.374Z" fill="#1B1B1F"/>
<path d="M188.967 74.8746C185.017 74.8746 181.981 74.0546 179.857 72.4146C177.784 70.7745 176.352 68.5878 175.562 65.8544C174.772 63.0713 174.377 60.0148 174.377 56.685V31.0406C174.377 27.5617 174.796 24.4804 175.636 21.7966C176.475 19.0632 177.956 16.9262 180.08 15.3855C182.203 13.7952 185.165 13 188.967 13C192.473 13 195.213 13.6958 197.188 15.0873C199.163 16.4789 200.57 18.4668 201.41 21.0512C202.249 23.5858 202.669 26.5677 202.669 29.9969V33.0534H198.818V29.9969C198.818 27.1144 198.546 24.6792 198.003 22.6912C197.46 20.6536 196.472 19.0881 195.04 17.9947C193.608 16.9013 191.584 16.3547 188.967 16.3547C186.103 16.3547 183.906 16.951 182.376 18.1438C180.845 19.3366 179.808 21.0015 179.265 23.1385C178.722 25.2755 178.45 27.7605 178.45 30.5933V57.2814C178.45 60.2633 178.746 62.8228 179.339 64.9598C179.931 67.0471 180.993 68.6623 182.524 69.8054C184.054 70.9485 186.202 71.52 188.967 71.52C191.633 71.52 193.683 70.9485 195.114 69.8054C196.546 68.6623 197.509 67.072 198.003 65.0344C198.546 62.947 198.818 60.5366 198.818 57.8032V54.1504H202.669V57.1323C202.669 60.5615 202.274 63.6179 201.484 66.3017C200.694 68.9854 199.311 71.0976 197.336 72.6382C195.361 74.1292 192.572 74.8746 188.967 74.8746Z" fill="#1B1B1F"/>
<path d="M219.796 74.0546V16.951H207.798V13.6709H235.498V16.951H223.796V74.0546H219.796Z" fill="#1B1B1F"/>
<path d="M242.538 74.0546V13.6709H246.538V39.1663H253.278C256.981 39.1663 260.017 39.8372 262.387 41.1791C264.757 42.4712 266.51 44.4343 267.646 47.0683C268.781 49.7024 269.349 53.0073 269.349 56.9832C269.349 59.4681 269.053 61.7542 268.46 63.8416C267.917 65.9289 267.004 67.7429 265.72 69.2836C264.486 70.7745 262.856 71.9424 260.832 72.7873C258.808 73.6322 256.339 74.0546 253.426 74.0546H242.538ZM246.538 70.7745H253.574C256.487 70.7745 258.783 70.2527 260.462 69.209C262.19 68.1157 263.424 66.5502 264.165 64.5125C264.905 62.4252 265.276 59.8906 265.276 56.9086C265.276 52.3861 264.412 48.8575 262.684 46.3229C260.955 43.7385 257.894 42.4464 253.5 42.4464H246.538V70.7745Z" fill="#1B1B1F"/>
<path d="M290.708 74.0546V13.6709H303.077C305.842 13.6709 308.113 14.0685 309.891 14.8637C311.717 15.6092 313.125 16.6777 314.112 18.0693C315.149 19.4608 315.865 21.076 316.26 22.9149C316.704 24.704 316.926 26.6422 316.926 28.7296C316.926 30.3199 316.729 32.0345 316.334 33.8734C315.988 35.6625 315.322 37.2529 314.334 38.6444C313.347 40.036 311.866 40.9803 309.891 41.4773C312.211 42.173 313.964 43.3658 315.149 45.0555C316.383 46.7453 317.198 48.6338 317.593 50.7212C318.037 52.7588 318.26 54.6722 318.26 56.4614C318.26 58.7475 318.087 60.9342 317.741 63.0216C317.445 65.1089 316.828 66.9974 315.89 68.6872C314.951 70.3272 313.594 71.6442 311.816 72.6382C310.088 73.5825 307.767 74.0546 304.854 74.0546H290.708ZM294.708 70.8491H304.336C308.286 70.8491 310.927 69.6812 312.261 67.3453C313.643 65.0095 314.334 61.4064 314.334 56.5359C314.334 54.1007 314.038 51.8891 313.446 49.9011C312.902 47.9132 311.94 46.3229 310.557 45.1301C309.224 43.9373 307.348 43.3409 304.928 43.3409H294.708V70.8491ZM294.708 40.1354H304.854C307.076 40.1354 308.78 39.6136 309.965 38.5699C311.15 37.5262 311.964 36.1595 312.409 34.4698C312.902 32.7303 313.149 30.8169 313.149 28.7296C313.149 26.4931 312.878 24.4804 312.335 22.6912C311.791 20.9021 310.73 19.5105 309.15 18.5165C307.619 17.4729 305.274 16.951 302.114 16.951H294.708V40.1354Z" fill="#1B1B1F"/>
<path d="M337.719 74.0546L350.309 13.6709H354.975L367.64 74.0546H363.566L360.456 57.3559H344.903L341.718 74.0546H337.719ZM345.495 54.374H359.937L352.679 18.5911L345.495 54.374Z" fill="#1B1B1F"/>
<path d="M387.62 74.8746C384.608 74.8746 382.164 74.2783 380.288 73.0855C378.461 71.8927 377.128 70.2527 376.289 68.1654C375.449 66.0283 375.029 63.5185 375.029 60.636V59.5178H378.733C378.733 59.6172 378.733 59.8657 378.733 60.2633C378.733 60.6112 378.733 60.8348 378.733 60.9342C378.782 64.4131 379.498 67.072 380.88 68.9108C382.263 70.7497 384.509 71.6691 387.62 71.6691C389.496 71.6691 391.175 71.2964 392.656 70.5509C394.138 69.7557 395.298 68.3642 396.137 66.3762C397.026 64.3883 397.47 61.6052 397.47 58.0269C397.47 54.051 396.68 50.7709 395.1 48.1866C393.52 45.6022 390.829 44.2604 387.028 44.161C386.978 44.161 386.657 44.161 386.065 44.161C385.472 44.161 384.88 44.161 384.287 44.161C383.695 44.161 383.349 44.161 383.25 44.161V41.1791C383.349 41.1791 383.695 41.1791 384.287 41.1791C384.88 41.1791 385.472 41.1791 386.065 41.1791C386.657 41.1791 386.954 41.1791 386.954 41.1791C390.805 41.0797 393.52 39.9614 395.1 37.8244C396.68 35.6377 397.47 32.3079 397.47 27.835C397.47 24.4555 396.755 21.6724 395.323 19.4857C393.94 17.2989 391.57 16.2056 388.213 16.2056C385.053 16.2056 382.609 17.0007 380.88 18.5911C379.202 20.1814 378.338 22.9646 378.288 26.9404C378.288 27.0398 378.288 27.2386 378.288 27.5368C378.288 27.7853 378.288 27.9593 378.288 28.0587H374.585V27.0895C374.585 24.2567 375.005 21.7966 375.844 19.7093C376.733 17.5723 378.165 15.9322 380.14 14.7892C382.115 13.5964 384.756 13 388.064 13C391.126 13 393.644 13.6709 395.619 15.0128C397.594 16.305 399.051 18.0693 399.989 20.3057C400.976 22.5421 401.47 25.0767 401.47 27.9096C401.47 32.4321 400.631 35.911 398.952 38.3462C397.273 40.7318 395.224 42.173 392.805 42.67C394.088 42.9682 395.397 43.664 396.73 44.7574C398.063 45.801 399.174 47.3914 400.063 49.5284C401.001 51.6654 401.47 54.4734 401.47 57.9523C401.47 61.2324 401.001 64.1646 400.063 66.749C399.174 69.2836 397.717 71.2715 395.693 72.7128C393.669 74.154 390.978 74.8746 387.62 74.8746Z" fill="#1B1B1F"/>
<path d="M406.429 74.0546L419.02 13.6709H423.686L436.351 74.0546H432.277L429.167 57.3559H413.613L410.429 74.0546H406.429ZM414.206 54.374H428.648L421.39 18.5911L414.206 54.374Z" fill="#1B1B1F"/>
<path d="M444.259 74.0546V13.6709H458.331C461.935 13.6709 464.749 14.3667 466.774 15.7583C468.798 17.1001 470.205 18.939 470.995 21.2748C471.835 23.6106 472.254 26.2695 472.254 29.2514C472.254 31.9351 471.835 34.4946 470.995 36.9298C470.205 39.3651 468.798 41.353 466.774 42.8937C464.749 44.4343 461.96 45.2046 458.405 45.2046H448.258V74.0546H444.259ZM448.258 42.0736H457.516C459.935 42.0736 461.91 41.6512 463.441 40.8063C465.021 39.9614 466.181 38.6196 466.922 36.7807C467.712 34.8922 468.107 32.3824 468.107 29.2514C468.107 26.021 467.761 23.5112 467.07 21.7221C466.379 19.8832 465.268 18.6159 463.737 17.9202C462.207 17.1747 460.157 16.8019 457.59 16.8019H448.258V42.0736Z" fill="#1B1B1F"/>
<path d="M488.13 74.0546V16.951H476.132V13.6709H503.831V16.951H492.129V74.0546H488.13Z" fill="#1B1B1F"/>
<path d="M510.798 74.0546V13.6709H514.871V40.8809H535.905V13.6709H539.905V74.0546H535.905V44.0119H514.871V74.0546H510.798Z" fill="#1B1B1F"/>
<path d="M550.939 74.0546V13.6709H554.568V65.1089L575.084 13.6709H578.417V74.0546H574.788V22.6167L554.346 74.0546H550.939Z" fill="#1B1B1F"/>
<path d="M585.048 74.0546L598.231 42.7446L585.122 13.6709H588.825L600.601 39.4645L612.081 13.6709H616.08L602.378 43.3409L616.376 74.0546H612.451L600.082 46.9192L589.047 74.0546H585.048Z" fill="#1B1B1F"/>
<path d="M637.084 74.0546V13.6709H641.084V74.0546H637.084Z" fill="#1B1B1F"/>
<path d="M652.271 74.0546V13.6709H672.639V16.951H656.271V74.0546H652.271Z" fill="#1B1B1F"/>
<path d="M679.611 74.0546V13.6709H693.683C697.287 13.6709 700.102 14.3667 702.126 15.7583C704.15 17.1001 705.558 18.939 706.348 21.2748C707.187 23.6106 707.607 26.2695 707.607 29.2514C707.607 31.9351 707.187 34.4946 706.348 36.9298C705.558 39.3651 704.15 41.353 702.126 42.8937C700.102 44.4343 697.312 45.2046 693.757 45.2046H683.61V74.0546H679.611ZM683.61 42.0736H692.868C695.288 42.0736 697.263 41.6512 698.793 40.8063C700.373 39.9614 701.534 38.6196 702.274 36.7807C703.064 34.8922 703.459 32.3824 703.459 29.2514C703.459 26.021 703.114 23.5112 702.422 21.7221C701.731 19.8832 700.62 18.6159 699.089 17.9202C697.559 17.1747 695.51 16.8019 692.942 16.8019H683.61V42.0736Z" fill="#1B1B1F"/>
<path d="M711.071 74.0546L723.662 13.6709H728.328L740.992 74.0546H736.919L733.808 57.3559H718.255L715.07 74.0546H711.071ZM718.847 54.374H733.29L726.032 18.5911L718.847 54.374Z" fill="#1B1B1F"/>
<path d="M744.456 74.0546L757.64 42.7446L744.531 13.6709H748.234L760.01 39.4645L771.489 13.6709H775.489L761.787 43.3409L775.785 74.0546H771.86L759.491 46.9192L748.456 74.0546H744.456Z" fill="#1B1B1F"/>
<path d="M795.679 74.0546L797.456 13.6709H801.455L814.12 68.1654L827.007 13.6709H831.155L832.858 74.0546H829.377L827.896 23.4367L815.676 74.0546H812.713L800.641 23.5112L799.159 74.0546H795.679Z" fill="#1B1B1F"/>
<path d="M856.768 74.8746C852.868 74.8746 849.831 74.1043 847.659 72.5637C845.535 70.9733 844.054 68.8363 843.215 66.1526C842.375 63.4191 841.956 60.3378 841.956 56.9086V30.5187C841.956 27.0895 842.4 24.0579 843.289 21.4239C844.178 18.7899 845.683 16.7274 847.807 15.2364C849.979 13.7455 852.966 13 856.768 13C860.57 13 863.533 13.7455 865.656 15.2364C867.828 16.7274 869.359 18.7899 870.248 21.4239C871.136 24.0579 871.581 27.0895 871.581 30.5187V56.9832C871.581 60.4124 871.161 63.4688 870.322 66.1526C869.482 68.8363 867.976 70.9733 865.804 72.5637C863.681 74.1043 860.669 74.8746 856.768 74.8746ZM856.768 71.52C859.632 71.52 861.829 70.9485 863.36 69.8054C864.94 68.6623 866.026 67.072 866.619 65.0344C867.211 62.947 867.507 60.5366 867.507 57.8032V29.9223C867.507 27.1889 867.211 24.8034 866.619 22.7658C866.026 20.7281 864.965 19.1626 863.434 18.0693C861.903 16.9262 859.681 16.3547 856.768 16.3547C853.904 16.3547 851.683 16.9262 850.103 18.0693C848.572 19.1626 847.51 20.7281 846.918 22.7658C846.325 24.8034 846.029 27.1889 846.029 29.9223V57.8032C846.029 60.5366 846.325 62.947 846.918 65.0344C847.51 67.072 848.572 68.6623 850.103 69.8054C851.683 70.9485 853.904 71.52 856.768 71.52Z" fill="#1B1B1F"/>
<path d="M877.404 74.0546L892.809 42.5209L878.811 13.6709H882.737L896.216 42.2973H896.734V13.6709H900.438V42.2973H900.956L914.435 13.6709H918.361L904.363 42.5209L919.768 74.0546H915.769L901.178 43.3409H900.438V74.0546H896.734V43.3409H895.92L881.403 74.0546H877.404Z" fill="#1B1B1F"/>
<path d="M926.823 74.0546V13.6709H947.561V16.951H930.897V41.1791H944.598V44.3101H930.897V70.8491H947.783V74.0546H926.823Z" fill="#1B1B1F"/>
<path d="M970.004 74.0546V13.6709H982.373C985.138 13.6709 987.409 14.0685 989.186 14.8637C991.013 15.6092 992.42 16.6777 993.408 18.0693C994.445 19.4608 995.161 21.076 995.556 22.9149C996 24.704 996.222 26.6422 996.222 28.7296C996.222 30.3199 996.025 32.0345 995.63 33.8734C995.284 35.6625 994.618 37.2529 993.63 38.6444C992.643 40.036 991.161 40.9803 989.186 41.4773C991.507 42.173 993.26 43.3658 994.445 45.0555C995.679 46.7453 996.494 48.6338 996.889 50.7212C997.333 52.7588 997.555 54.6722 997.555 56.4614C997.555 58.7475 997.383 60.9342 997.037 63.0216C996.741 65.1089 996.124 66.9974 995.185 68.6872C994.247 70.3272 992.89 71.6442 991.112 72.6382C989.384 73.5825 987.063 74.0546 984.15 74.0546H970.004ZM974.004 70.8491H983.632C987.582 70.8491 990.223 69.6812 991.556 67.3453C992.939 65.0095 993.63 61.4064 993.63 56.5359C993.63 54.1007 993.334 51.8891 992.741 49.9011C992.198 47.9132 991.235 46.3229 989.853 45.1301C988.52 43.9373 986.644 43.3409 984.224 43.3409H974.004V70.8491ZM974.004 40.1354H984.15C986.372 40.1354 988.075 39.6136 989.26 38.5699C990.445 37.5262 991.26 36.1595 991.705 34.4698C992.198 32.7303 992.445 30.8169 992.445 28.7296C992.445 26.4931 992.174 24.4804 991.63 22.6912C991.087 20.9021 990.026 19.5105 988.446 18.5165C986.915 17.4729 984.57 16.951 981.41 16.951H974.004V40.1354Z" fill="#1B1B1F"/>
<path d="M1006.09 74.0546V13.6709H1009.72V65.1089L1030.24 13.6709H1033.57V74.0546H1029.94V22.6167L1009.5 74.0546H1006.09Z" fill="#1B1B1F"/>
<path d="M1044.57 74.0546V13.6709H1048.65V41.9991H1053.61L1066.79 13.6709H1070.94L1057.16 42.9682L1073.16 74.0546H1069.09L1053.61 44.3846H1048.65V74.0546H1044.57Z" fill="#1B1B1F"/>
<path d="M1075.66 74.2037V70.9982C1077.24 70.8988 1078.55 70.7 1079.58 70.4018C1080.62 70.1036 1081.46 69.4078 1082.1 68.3145C1082.74 67.2211 1083.29 65.4568 1083.73 63.0216C1084.18 60.5863 1084.6 57.2068 1084.99 52.8831C1085.44 48.5593 1085.93 42.9931 1086.47 36.1844L1088.1 13.6709H1109.58V74.0546H1105.51V16.8019H1091.88L1090.4 36.1844C1089.85 42.9931 1089.36 48.6835 1088.92 53.2558C1088.47 57.7784 1087.95 61.4312 1087.36 64.2143C1086.82 66.9974 1086.08 69.1096 1085.14 70.5509C1084.25 71.9424 1083.04 72.8867 1081.51 73.3837C1079.98 73.8807 1078.03 74.154 1075.66 74.2037Z" fill="#1B1B1F"/>
<path d="M1120.52 74.0546V13.6709H1124.14V65.1089L1144.66 13.6709H1147.99V74.0546H1144.36V22.6167L1123.92 74.0546H1120.52Z" fill="#1B1B1F"/>
<path d="M1158.99 74.0546V13.6709H1163.07V41.9991H1168.03L1181.21 13.6709H1185.36L1171.58 42.9682L1187.58 74.0546H1183.51L1168.03 44.3846H1163.07V74.0546H1158.99Z" fill="#1B1B1F"/>
<path d="M1190.6 74.0546L1203.19 13.6709H1207.86L1220.52 74.0546H1216.45L1213.34 57.3559H1197.78L1194.6 74.0546H1190.6ZM1198.38 54.374H1212.82L1205.56 18.5911L1198.38 54.374Z" fill="#1B1B1F"/>
<path d="M1233.68 74.0546V16.951H1221.68V13.6709H1249.38V16.951H1237.68V74.0546H1233.68Z" fill="#1B1B1F"/>
<path d="M1256.35 74.0546V13.6709H1259.97V65.1089L1280.49 13.6709H1283.82V74.0546H1280.19V22.6167L1259.75 74.0546H1256.35Z" fill="#1B1B1F"/>
<path d="M1309 74.0546V13.6709H1313V74.0546H1309Z" fill="#1B1B1F"/>
<path d="M1324.19 74.0546V13.6709H1344.56V16.951H1328.19V74.0546H1324.19Z" fill="#1B1B1F"/>
<path d="M1351.53 74.0546V13.6709H1365.6C1369.21 13.6709 1372.02 14.3667 1374.04 15.7583C1376.07 17.1001 1377.48 18.939 1378.27 21.2748C1379.11 23.6106 1379.53 26.2695 1379.53 29.2514C1379.53 31.9351 1379.11 34.4946 1378.27 36.9298C1377.48 39.3651 1376.07 41.353 1374.04 42.8937C1372.02 44.4343 1369.23 45.2046 1365.68 45.2046H1355.53V74.0546H1351.53ZM1355.53 42.0736H1364.79C1367.21 42.0736 1369.18 41.6512 1370.71 40.8063C1372.29 39.9614 1373.45 38.6196 1374.19 36.7807C1374.98 34.8922 1375.38 32.3824 1375.38 29.2514C1375.38 26.021 1375.03 23.5112 1374.34 21.7221C1373.65 19.8832 1372.54 18.6159 1371.01 17.9202C1369.48 17.1747 1367.43 16.8019 1364.86 16.8019H1355.53V42.0736Z" fill="#1B1B1F"/>
<path d="M1401.03 74.8746C1397.13 74.8746 1394.09 74.1043 1391.92 72.5637C1389.8 70.9733 1388.32 68.8363 1387.48 66.1526C1386.64 63.4191 1386.22 60.3378 1386.22 56.9086V30.5187C1386.22 27.0895 1386.66 24.0579 1387.55 21.4239C1388.44 18.7899 1389.94 16.7274 1392.07 15.2364C1394.24 13.7455 1397.23 13 1401.03 13C1404.83 13 1407.79 13.7455 1409.92 15.2364C1412.09 16.7274 1413.62 18.7899 1414.51 21.4239C1415.4 24.0579 1415.84 27.0895 1415.84 30.5187V56.9832C1415.84 60.4124 1415.42 63.4688 1414.58 66.1526C1413.74 68.8363 1412.24 70.9733 1410.07 72.5637C1407.94 74.1043 1404.93 74.8746 1401.03 74.8746ZM1401.03 71.52C1403.89 71.52 1406.09 70.9485 1407.62 69.8054C1409.2 68.6623 1410.29 67.072 1410.88 65.0344C1411.47 62.947 1411.77 60.5366 1411.77 57.8032V29.9223C1411.77 27.1889 1411.47 24.8034 1410.88 22.7658C1410.29 20.7281 1409.23 19.1626 1407.7 18.0693C1406.16 16.9262 1403.94 16.3547 1401.03 16.3547C1398.17 16.3547 1395.94 16.9262 1394.36 18.0693C1392.83 19.1626 1391.77 20.7281 1391.18 22.7658C1390.59 24.8034 1390.29 27.1889 1390.29 29.9223V57.8032C1390.29 60.5366 1390.59 62.947 1391.18 65.0344C1391.77 67.072 1392.83 68.6623 1394.36 69.8054C1395.94 70.9485 1398.17 71.52 1401.03 71.52Z" fill="#1B1B1F"/>
<path d="M1425.66 74.0546V13.6709H1438.03C1440.8 13.6709 1443.07 14.0685 1444.85 14.8637C1446.67 15.6092 1448.08 16.6777 1449.07 18.0693C1450.11 19.4608 1450.82 21.076 1451.22 22.9149C1451.66 24.704 1451.88 26.6422 1451.88 28.7296C1451.88 30.3199 1451.69 32.0345 1451.29 33.8734C1450.94 35.6625 1450.28 37.2529 1449.29 38.6444C1448.3 40.036 1446.82 40.9803 1444.85 41.4773C1447.17 42.173 1448.92 43.3658 1450.11 45.0555C1451.34 46.7453 1452.15 48.6338 1452.55 50.7212C1452.99 52.7588 1453.22 54.6722 1453.22 56.4614C1453.22 58.7475 1453.04 60.9342 1452.7 63.0216C1452.4 65.1089 1451.78 66.9974 1450.85 68.6872C1449.91 70.3272 1448.55 71.6442 1446.77 72.6382C1445.04 73.5825 1442.72 74.0546 1439.81 74.0546H1425.66ZM1429.66 70.8491H1439.29C1443.24 70.8491 1445.88 69.6812 1447.22 67.3453C1448.6 65.0095 1449.29 61.4064 1449.29 56.5359C1449.29 54.1007 1448.99 51.8891 1448.4 49.9011C1447.86 47.9132 1446.9 46.3229 1445.51 45.1301C1444.18 43.9373 1442.3 43.3409 1439.88 43.3409H1429.66V70.8491ZM1429.66 40.1354H1439.81C1442.03 40.1354 1443.74 39.6136 1444.92 38.5699C1446.11 37.5262 1446.92 36.1595 1447.36 34.4698C1447.86 32.7303 1448.11 30.8169 1448.11 28.7296C1448.11 26.4931 1447.83 24.4804 1447.29 22.6912C1446.75 20.9021 1445.69 19.5105 1444.11 18.5165C1442.58 17.4729 1440.23 16.951 1437.07 16.951H1429.66V40.1354Z" fill="#1B1B1F"/>
<path d="M1460.79 80.9876L1460.87 77.782C1463.28 77.8317 1465.19 77.6826 1466.57 77.3347C1468 77.0365 1469.06 76.4402 1469.75 75.5456C1470.44 74.7007 1470.94 73.5079 1471.23 71.9673C1471.58 70.3769 1471.88 68.3641 1472.12 65.9289L1458.72 13.6709H1462.72L1469.53 41.5518L1474.12 61.1579L1478.12 41.4027L1484.12 13.6709H1488.19L1476.27 66.3017C1475.78 68.6375 1475.31 70.6751 1474.86 72.4146C1474.42 74.1043 1473.9 75.4959 1473.31 76.5893C1472.72 77.7323 1471.93 78.6269 1470.94 79.273C1469.95 79.9688 1468.64 80.4409 1467.01 80.6894C1465.38 80.9379 1463.31 81.0373 1460.79 80.9876Z" fill="#1B1B1F"/>
<path d="M1521.42 74.8746C1518.41 74.8746 1515.96 74.2783 1514.09 73.0855C1512.26 71.8927 1510.93 70.2527 1510.09 68.1654C1509.25 66.0283 1508.83 63.5185 1508.83 60.636V59.5178H1512.53C1512.53 59.6172 1512.53 59.8657 1512.53 60.2633C1512.53 60.6112 1512.53 60.8348 1512.53 60.9342C1512.58 64.4131 1513.3 67.072 1514.68 68.9108C1516.06 70.7497 1518.31 71.6691 1521.42 71.6691C1523.3 71.6691 1524.97 71.2964 1526.46 70.5509C1527.94 69.7557 1529.1 68.3642 1529.94 66.3762C1530.83 64.3883 1531.27 61.6052 1531.27 58.0269C1531.27 54.051 1530.48 50.7709 1528.9 48.1866C1527.32 45.6022 1524.63 44.2604 1520.83 44.161C1520.78 44.161 1520.46 44.161 1519.86 44.161C1519.27 44.161 1518.68 44.161 1518.09 44.161C1517.49 44.161 1517.15 44.161 1517.05 44.161V41.1791C1517.15 41.1791 1517.49 41.1791 1518.09 41.1791C1518.68 41.1791 1519.27 41.1791 1519.86 41.1791C1520.46 41.1791 1520.75 41.1791 1520.75 41.1791C1524.6 41.0797 1527.32 39.9614 1528.9 37.8244C1530.48 35.6377 1531.27 32.3079 1531.27 27.835C1531.27 24.4555 1530.55 21.6724 1529.12 19.4857C1527.74 17.2989 1525.37 16.2056 1522.01 16.2056C1518.85 16.2056 1516.41 17.0007 1514.68 18.5911C1513 20.1814 1512.14 22.9646 1512.09 26.9404C1512.09 27.0398 1512.09 27.2386 1512.09 27.5368C1512.09 27.7853 1512.09 27.9593 1512.09 28.0587H1508.38V27.0895C1508.38 24.2567 1508.8 21.7966 1509.64 19.7093C1510.53 17.5723 1511.96 15.9322 1513.94 14.7892C1515.91 13.5964 1518.56 13 1521.86 13C1524.92 13 1527.44 13.6709 1529.42 15.0128C1531.39 16.305 1532.85 18.0693 1533.79 20.3057C1534.78 22.5421 1535.27 25.0767 1535.27 27.9096C1535.27 32.4321 1534.43 35.911 1532.75 38.3462C1531.07 40.7318 1529.02 42.173 1526.6 42.67C1527.89 42.9682 1529.2 43.664 1530.53 44.7574C1531.86 45.801 1532.97 47.3914 1533.86 49.5284C1534.8 51.6654 1535.27 54.4734 1535.27 57.9523C1535.27 61.2324 1534.8 64.1646 1533.86 66.749C1532.97 69.2836 1531.52 71.2715 1529.49 72.7128C1527.47 74.154 1524.78 74.8746 1521.42 74.8746Z" fill="#1B1B1F"/>
<path d="M1540.23 74.0546L1552.82 13.6709H1557.49L1570.15 74.0546H1566.08L1562.97 57.3559H1547.41L1544.23 74.0546H1540.23ZM1548.01 54.374H1562.45L1555.19 18.5911L1548.01 54.374Z" fill="#1B1B1F"/>
<path d="M1574.35 74.2037V70.9982C1575.93 70.8988 1577.24 70.7 1578.28 70.4018C1579.32 70.1036 1580.16 69.4078 1580.8 68.3145C1581.44 67.2211 1581.98 65.4568 1582.43 63.0216C1582.87 60.5863 1583.29 57.2068 1583.69 52.8831C1584.13 48.5593 1584.62 42.9931 1585.17 36.1844L1586.8 13.6709H1608.28V74.0546H1604.2V16.8019H1590.57L1589.09 36.1844C1588.55 42.9931 1588.06 48.6835 1587.61 53.2558C1587.17 57.7784 1586.65 61.4312 1586.06 64.2143C1585.51 66.9974 1584.77 69.1096 1583.83 70.5509C1582.95 71.9424 1581.74 72.8867 1580.21 73.3837C1578.67 73.8807 1576.72 74.154 1574.35 74.2037Z" fill="#1B1B1F"/>
<path d="M1619.21 74.0546V13.6709H1639.95V16.951H1623.28V41.1791H1636.99V44.3101H1623.28V70.8491H1640.17V74.0546H1619.21Z" fill="#1B1B1F"/>
<path d="M1644.36 74.0546L1659.77 42.5209L1645.77 13.6709H1649.69L1663.17 42.2973H1663.69V13.6709H1667.39V42.2973H1667.91L1681.39 13.6709H1685.32L1671.32 42.5209L1686.72 74.0546H1682.72L1668.13 43.3409H1667.39V74.0546H1663.69V43.3409H1662.88L1648.36 74.0546H1644.36Z" fill="#1B1B1F"/>
<path d="M1693.78 74.0546V13.6709H1697.85V40.8809H1718.89V13.6709H1722.89V74.0546H1718.89V44.0119H1697.85V74.0546H1693.78Z" fill="#1B1B1F"/>
<path d="M1734.07 74.0546V13.6709H1738.07V74.0546H1734.07Z" fill="#1B1B1F"/>
<path d="M1762.59 74.8746C1758.64 74.8746 1755.6 74.0546 1753.48 72.4146C1751.4 70.7745 1749.97 68.5878 1749.18 65.8544C1748.39 63.0713 1748 60.0148 1748 56.685V31.0406C1748 27.5617 1748.42 24.4804 1749.26 21.7966C1750.1 19.0632 1751.58 16.9262 1753.7 15.3855C1755.82 13.7952 1758.79 13 1762.59 13C1766.09 13 1768.83 13.6958 1770.81 15.0873C1772.78 16.4789 1774.19 18.4668 1775.03 21.0512C1775.87 23.5858 1776.29 26.5677 1776.29 29.9969V33.0534H1772.44V29.9969C1772.44 27.1144 1772.17 24.6792 1771.62 22.6912C1771.08 20.6536 1770.09 19.0881 1768.66 17.9947C1767.23 16.9013 1765.2 16.3547 1762.59 16.3547C1759.72 16.3547 1757.53 16.951 1756 18.1438C1754.46 19.3366 1753.43 21.0015 1752.89 23.1385C1752.34 25.2755 1752.07 27.7605 1752.07 30.5933V57.2814C1752.07 60.2633 1752.37 62.8228 1752.96 64.9598C1753.55 67.0471 1754.61 68.6623 1756.14 69.8054C1757.67 70.9485 1759.82 71.52 1762.59 71.52C1765.25 71.52 1767.3 70.9485 1768.73 69.8054C1770.17 68.6623 1771.13 67.072 1771.62 65.0344C1772.17 62.947 1772.44 60.5366 1772.44 57.8032V54.1504H1776.29V57.1323C1776.29 60.5615 1775.89 63.6179 1775.1 66.3017C1774.31 68.9854 1772.93 71.0976 1770.96 72.6382C1768.98 74.1292 1766.19 74.8746 1762.59 74.8746Z" fill="#1B1B1F"/>
<path d="M1793.42 74.0546V16.951H1781.42V13.6709H1809.12V16.951H1797.42V74.0546H1793.42Z" fill="#1B1B1F"/>
<path d="M1816.16 74.0546V13.6709H1820.16V39.1663H1826.9C1830.6 39.1663 1833.64 39.8372 1836.01 41.1791C1838.38 42.4712 1840.13 44.4343 1841.27 47.0683C1842.4 49.7024 1842.97 53.0073 1842.97 56.9832C1842.97 59.4681 1842.67 61.7542 1842.08 63.8416C1841.54 65.9289 1840.62 67.7429 1839.34 69.2836C1838.11 70.7745 1836.48 71.9424 1834.45 72.7873C1832.43 73.6322 1829.96 74.0546 1827.05 74.0546H1816.16ZM1820.16 70.7745H1827.19C1830.11 70.7745 1832.4 70.2527 1834.08 69.209C1835.81 68.1157 1837.04 66.5502 1837.78 64.5125C1838.53 62.4252 1838.9 59.8906 1838.9 56.9086C1838.9 52.3861 1838.03 48.8575 1836.3 46.3229C1834.58 43.7385 1831.51 42.4464 1827.12 42.4464H1820.16V70.7745Z" fill="#1B1B1F"/>
<path d="M1849.63 74.0546V66.3017H1854V74.0546H1849.63Z" fill="#1B1B1F"/>
<path d="M133 172.038V159.012H135.147C136.134 158.37 137.023 157.729 137.813 157.087C138.652 156.397 139.392 155.385 140.034 154.053C140.675 152.721 141.268 150.846 141.811 148.428C142.403 145.961 142.946 142.655 143.44 138.511C143.933 134.317 144.427 129.012 144.92 122.598L146.475 102.171H167.576V159.012H171.945V172.038H168.687L168.243 162.12H136.702L136.258 172.038H133ZM139.664 159.012H163.504V105.279H150.177L148.77 123.338C148.277 129.752 147.759 135.032 147.216 139.177C146.722 143.272 146.204 146.528 145.661 148.946C145.118 151.364 144.525 153.214 143.884 154.497C143.291 155.731 142.65 156.668 141.959 157.31C141.268 157.902 140.503 158.469 139.664 159.012Z" fill="#1B1B1F"/>
<path d="M193.228 162.934C189.328 162.934 186.293 162.17 184.121 160.64C181.998 159.061 180.517 156.939 179.678 154.275C178.839 151.561 178.42 148.502 178.42 145.098V118.897C178.42 115.493 178.864 112.483 179.752 109.868C180.641 107.253 182.146 105.205 184.269 103.725C186.441 102.245 189.427 101.505 193.228 101.505C197.028 101.505 199.99 102.245 202.112 103.725C204.284 105.205 205.814 107.253 206.703 109.868C207.591 112.483 208.035 115.493 208.035 118.897V145.172C208.035 148.576 207.616 151.611 206.777 154.275C205.938 156.939 204.432 159.061 202.26 160.64C200.138 162.17 197.127 162.934 193.228 162.934ZM193.228 159.604C196.09 159.604 198.287 159.036 199.817 157.902C201.397 156.767 202.482 155.188 203.075 153.165C203.667 151.093 203.963 148.699 203.963 145.986V118.305C203.963 115.592 203.667 113.223 203.075 111.2C202.482 109.177 201.421 107.623 199.891 106.537C198.361 105.403 196.14 104.835 193.228 104.835C190.365 104.835 188.144 105.403 186.564 106.537C185.034 107.623 183.973 109.177 183.38 111.2C182.788 113.223 182.492 115.592 182.492 118.305V145.986C182.492 148.699 182.788 151.093 183.38 153.165C183.973 155.188 185.034 156.767 186.564 157.902C188.144 159.036 190.365 159.604 193.228 159.604Z" fill="#1B1B1F"/>
<path d="M225.777 162.12V105.427H213.783V102.171H241.473V105.427H229.775V162.12H225.777Z" fill="#1B1B1F"/>
<path d="M248.512 162.12V102.171H262.579C266.183 102.171 268.996 102.862 271.02 104.243C273.044 105.575 274.45 107.401 275.24 109.72C276.079 112.039 276.499 114.679 276.499 117.639C276.499 120.304 276.079 122.845 275.24 125.262C274.45 127.68 273.044 129.654 271.02 131.183C268.996 132.713 266.207 133.478 262.653 133.478H252.51V162.12H248.512ZM252.51 130.369H261.765C264.183 130.369 266.158 129.95 267.688 129.111C269.268 128.272 270.427 126.94 271.168 125.114C271.958 123.239 272.352 120.748 272.352 117.639C272.352 114.432 272.007 111.94 271.316 110.164C270.625 108.338 269.514 107.08 267.984 106.389C266.454 105.649 264.406 105.279 261.839 105.279H252.51V130.369Z" fill="#1B1B1F"/>
<path d="M284.373 162.12V102.171H288.001V153.239L308.51 102.171H311.842V162.12H308.214V111.052L287.779 162.12H284.373Z" fill="#1B1B1F"/>
<path d="M322.172 162.12L323.949 102.171H327.947L340.608 156.273L353.491 102.171H357.637L359.34 162.12H355.86L354.379 111.866L342.163 162.12H339.201L327.133 111.94L325.652 162.12H322.172Z" fill="#1B1B1F"/>
<path d="M368.657 169.003L368.731 165.821C371.15 165.87 373.05 165.722 374.432 165.377C375.863 165.081 376.925 164.489 377.616 163.601C378.307 162.762 378.8 161.578 379.096 160.048C379.442 158.469 379.738 156.471 379.985 154.053L366.584 102.171H370.582L377.394 129.851L381.984 149.316L385.982 129.703L391.979 102.171H396.051L384.131 154.423C383.638 156.742 383.169 158.765 382.724 160.492C382.28 162.17 381.762 163.551 381.17 164.637C380.577 165.772 379.787 166.66 378.8 167.301C377.813 167.992 376.505 168.461 374.876 168.707C373.247 168.954 371.174 169.053 368.657 169.003Z" fill="#1B1B1F"/>
<path d="M403.096 162.12V102.171H406.724V153.239L427.233 102.171H430.565V162.12H426.937V111.052L406.502 162.12H403.096ZM416.942 97.656C414.474 97.656 412.474 96.9899 410.944 95.6577C409.464 94.3255 408.674 92.2532 408.575 89.4407H411.315C411.364 91.5624 411.932 93.0426 413.017 93.8814C414.103 94.7202 415.411 95.1396 416.942 95.1396C418.472 95.1396 419.78 94.7202 420.866 93.8814C421.952 93.0426 422.569 91.5624 422.717 89.4407H425.456C425.357 92.2532 424.518 94.3255 422.939 95.6577C421.409 96.9899 419.41 97.656 416.942 97.656Z" fill="#1B1B1F"/>
<path d="M449.558 162.12V105.427H437.564V102.171H465.255V105.427H453.556V162.12H449.558Z" fill="#1B1B1F"/>
<path d="M472.219 162.12V102.171H492.95V105.427H476.291V129.481H489.988V132.59H476.291V158.938H493.172V162.12H472.219Z" fill="#1B1B1F"/>
<path d="M514.686 162.934C510.737 162.934 507.702 162.12 505.579 160.492C503.506 158.864 502.075 156.693 501.285 153.979C500.495 151.216 500.1 148.181 500.1 144.876V119.415C500.1 115.962 500.52 112.902 501.359 110.238C502.198 107.524 503.679 105.403 505.801 103.873C507.924 102.294 510.886 101.505 514.686 101.505C518.191 101.505 520.93 102.195 522.905 103.577C524.879 104.959 526.286 106.932 527.125 109.498C527.964 112.014 528.383 114.975 528.383 118.379V121.414H524.533V118.379C524.533 115.518 524.262 113.1 523.719 111.126C523.176 109.103 522.189 107.549 520.757 106.463C519.326 105.378 517.302 104.835 514.686 104.835C511.823 104.835 509.627 105.427 508.097 106.611C506.567 107.796 505.53 109.449 504.987 111.57C504.444 113.692 504.173 116.159 504.173 118.971V145.468C504.173 148.428 504.469 150.969 505.061 153.091C505.653 155.163 506.715 156.767 508.245 157.902C509.775 159.036 511.922 159.604 514.686 159.604C517.352 159.604 519.4 159.036 520.831 157.902C522.263 156.767 523.225 155.188 523.719 153.165C524.262 151.093 524.533 148.699 524.533 145.986V142.359H528.383V145.32C528.383 148.724 527.989 151.759 527.199 154.423C526.409 157.087 525.027 159.184 523.053 160.714C521.078 162.194 518.289 162.934 514.686 162.934Z" fill="#1B1B1F"/>
<path d="M533.733 162.12L545.654 134.81C542.643 133.675 540.471 131.627 539.138 128.667C537.806 125.657 537.139 122.179 537.139 118.231C537.139 115.37 537.583 112.73 538.472 110.312C539.41 107.894 540.989 105.945 543.21 104.465C545.432 102.936 548.517 102.171 552.465 102.171H565.57V162.12H561.424V135.994H552.243C551.799 135.994 551.281 135.994 550.688 135.994C550.145 135.945 549.677 135.895 549.282 135.846L538.25 162.12H533.733ZM552.762 132.886H561.424V105.353H552.613C548.961 105.353 546.123 106.34 544.099 108.314C542.125 110.287 541.137 113.593 541.137 118.231C541.137 123.067 542.026 126.718 543.803 129.185C545.58 131.652 548.566 132.886 552.762 132.886Z" fill="#1B1B1F"/>
<path d="M590.655 162.12V102.171H619.9V162.12H615.902V105.279H594.653V162.12H590.655Z" fill="#1B1B1F"/>
<path d="M631 162.12V102.171H645.068C648.671 102.171 651.484 102.862 653.508 104.243C655.532 105.575 656.939 107.401 657.729 109.72C658.568 112.039 658.987 114.679 658.987 117.639C658.987 120.304 658.568 122.845 657.729 125.262C656.939 127.68 655.532 129.654 653.508 131.183C651.484 132.713 648.696 133.478 645.142 133.478H634.998V162.12H631ZM634.998 130.369H644.253C646.672 130.369 648.646 129.95 650.177 129.111C651.756 128.272 652.916 126.94 653.656 125.114C654.446 123.239 654.841 120.748 654.841 117.639C654.841 114.432 654.495 111.94 653.804 110.164C653.113 108.338 652.003 107.08 650.473 106.389C648.943 105.649 646.894 105.279 644.327 105.279H634.998V130.369Z" fill="#1B1B1F"/>
<path d="M662.45 162.12L675.037 102.171H679.701L692.362 162.12H688.29L685.18 145.542H669.632L666.448 162.12H662.45ZM670.224 142.581H684.662L677.406 107.056L670.224 142.581Z" fill="#1B1B1F"/>
<path d="M700.268 162.12V102.171H712.632C715.396 102.171 717.667 102.565 719.444 103.355C721.27 104.095 722.677 105.156 723.664 106.537C724.701 107.919 725.416 109.523 725.811 111.348C726.255 113.124 726.478 115.049 726.478 117.121C726.478 118.7 726.28 120.402 725.885 122.228C725.54 124.004 724.873 125.583 723.886 126.965C722.899 128.346 721.418 129.284 719.444 129.777C721.764 130.468 723.516 131.652 724.701 133.33C725.935 135.007 726.749 136.882 727.144 138.955C727.588 140.978 727.81 142.877 727.81 144.653C727.81 146.923 727.638 149.094 727.292 151.167C726.996 153.239 726.379 155.114 725.441 156.791C724.503 158.42 723.146 159.727 721.369 160.714C719.641 161.652 717.321 162.12 714.409 162.12H700.268ZM704.266 158.938H713.891C717.84 158.938 720.48 157.778 721.813 155.459C723.195 153.14 723.886 149.563 723.886 144.727C723.886 142.31 723.59 140.114 722.998 138.14C722.455 136.167 721.492 134.588 720.11 133.404C718.777 132.22 716.902 131.627 714.483 131.627H704.266V158.938ZM704.266 128.445H714.409C716.63 128.445 718.333 127.927 719.518 126.891C720.703 125.855 721.517 124.498 721.961 122.82C722.455 121.093 722.702 119.193 722.702 117.121C722.702 114.901 722.43 112.902 721.887 111.126C721.344 109.35 720.283 107.968 718.703 106.981C717.173 105.945 714.829 105.427 711.67 105.427H704.266V128.445Z" fill="#1B1B1F"/>
<path d="M736.346 162.12V102.171H739.974V153.239L760.482 102.171H763.814V162.12H760.186V111.052L739.751 162.12H736.346Z" fill="#1B1B1F"/>
<path d="M771.183 162.268V159.086C772.763 158.987 774.071 158.79 775.108 158.494C776.144 158.198 776.983 157.507 777.625 156.421C778.267 155.336 778.81 153.584 779.254 151.167C779.698 148.749 780.118 145.394 780.512 141.101C780.957 136.808 781.45 131.282 781.993 124.522L783.622 102.171H805.093V162.12H801.021V105.279H787.398L785.917 124.522C785.374 131.282 784.881 136.932 784.436 141.471C783.992 145.961 783.474 149.588 782.882 152.351C782.339 155.114 781.598 157.211 780.66 158.642C779.772 160.023 778.563 160.961 777.033 161.454C775.502 161.948 773.553 162.219 771.183 162.268Z" fill="#1B1B1F"/>
<path d="M841.972 173C839.751 172.803 837.925 172.063 836.493 170.78C835.062 169.546 833.951 167.869 833.161 165.747C832.372 163.625 831.779 161.133 831.384 158.272C831.039 155.361 830.817 152.153 830.718 148.65C830.669 145.147 830.644 141.422 830.644 137.474C830.644 133.478 830.669 129.703 830.718 126.151C830.817 122.598 831.039 119.366 831.384 116.455C831.779 113.495 832.372 110.953 833.161 108.832C833.951 106.661 835.062 104.983 836.493 103.799C837.925 102.565 839.751 101.899 841.972 101.801V104.687C840.096 104.934 838.64 105.945 837.604 107.722C836.567 109.449 835.827 111.792 835.383 114.753C834.938 117.664 834.667 121.068 834.568 124.966C834.519 128.815 834.494 132.984 834.494 137.474C834.494 141.964 834.519 146.158 834.568 150.056C834.667 153.905 834.938 157.285 835.383 160.196C835.827 163.107 836.542 165.426 837.53 167.153C838.566 168.929 840.047 169.941 841.972 170.188V173Z" fill="#1B1B1F"/>
<path d="M849.792 162.12V102.171H879.038V162.12H875.04V105.279H853.791V162.12H849.792Z" fill="#1B1B1F"/>
<path d="M890.138 162.12V102.171H904.206C907.809 102.171 910.622 102.862 912.646 104.243C914.67 105.575 916.077 107.401 916.866 109.72C917.705 112.039 918.125 114.679 918.125 117.639C918.125 120.304 917.705 122.845 916.866 125.262C916.077 127.68 914.67 129.654 912.646 131.183C910.622 132.713 907.833 133.478 904.28 133.478H894.136V162.12H890.138ZM894.136 130.369H903.391C905.81 130.369 907.784 129.95 909.314 129.111C910.894 128.272 912.054 126.94 912.794 125.114C913.584 123.239 913.979 120.748 913.979 117.639C913.979 114.432 913.633 111.94 912.942 110.164C912.251 108.338 911.141 107.08 909.61 106.389C908.08 105.649 906.032 105.279 903.465 105.279H894.136V130.369Z" fill="#1B1B1F"/>
<path d="M925.999 162.12V102.171H929.627V153.239L950.136 102.171H953.468V162.12H949.84V111.052L929.405 162.12H925.999Z" fill="#1B1B1F"/>
<path d="M964.465 162.12V102.171H968.537V129.185H989.564V102.171H993.562V162.12H989.564V132.294H968.537V162.12H964.465Z" fill="#1B1B1F"/>
<path d="M1034.95 172.038L1034.51 162.12H1004.59V102.171H1008.67V159.012H1029.99V102.171H1034.06V159.012H1038.21V172.038H1034.95Z" fill="#1B1B1F"/>
<path d="M1045.66 162.12V102.171H1049.29V153.239L1069.8 102.171H1073.13V162.12H1069.5V111.052L1049.07 162.12H1045.66Z" fill="#1B1B1F"/>
<path d="M1084.2 162.12V102.171H1113.45V162.12H1109.45V105.279H1088.2V162.12H1084.2Z" fill="#1B1B1F"/>
<path d="M1124.62 162.12V102.171H1128.62V162.12H1124.62Z" fill="#1B1B1F"/>
<path d="M1139.8 162.12V102.171H1152.17C1154.93 102.171 1157.2 102.565 1158.98 103.355C1160.81 104.095 1162.21 105.156 1163.2 106.537C1164.24 107.919 1164.95 109.523 1165.35 111.348C1165.79 113.124 1166.01 115.049 1166.01 117.121C1166.01 118.7 1165.82 120.402 1165.42 122.228C1165.08 124.004 1164.41 125.583 1163.42 126.965C1162.44 128.346 1160.95 129.284 1158.98 129.777C1161.3 130.468 1163.05 131.652 1164.24 133.33C1165.47 135.007 1166.29 136.882 1166.68 138.955C1167.12 140.978 1167.35 142.877 1167.35 144.653C1167.35 146.923 1167.17 149.094 1166.83 151.167C1166.53 153.239 1165.92 155.114 1164.98 156.791C1164.04 158.42 1162.68 159.727 1160.91 160.714C1159.18 161.652 1156.86 162.12 1153.95 162.12H1139.8ZM1143.8 158.938H1153.43C1157.38 158.938 1160.02 157.778 1161.35 155.459C1162.73 153.14 1163.42 149.563 1163.42 144.727C1163.42 142.31 1163.13 140.114 1162.53 138.14C1161.99 136.167 1161.03 134.588 1159.65 133.404C1158.31 132.22 1156.44 131.627 1154.02 131.627H1143.8V158.938ZM1143.8 128.445H1153.95C1156.17 128.445 1157.87 127.927 1159.05 126.891C1160.24 125.855 1161.05 124.498 1161.5 122.82C1161.99 121.093 1162.24 119.193 1162.24 117.121C1162.24 114.901 1161.97 112.902 1161.42 111.126C1160.88 109.35 1159.82 107.968 1158.24 106.981C1156.71 105.945 1154.37 105.427 1151.21 105.427H1143.8V128.445Z" fill="#1B1B1F"/>
<path d="M1172.7 173V170.188C1174.57 169.941 1176.03 168.929 1177.07 167.153C1178.1 165.426 1178.84 163.107 1179.29 160.196C1179.73 157.235 1179.98 153.831 1180.03 149.982C1180.13 146.084 1180.18 141.89 1180.18 137.4C1180.18 132.91 1180.13 128.741 1180.03 124.892C1179.98 120.994 1179.73 117.59 1179.29 114.679C1178.84 111.768 1178.1 109.449 1177.07 107.722C1176.03 105.945 1174.57 104.934 1172.7 104.687V101.801C1174.92 101.899 1176.75 102.565 1178.18 103.799C1179.61 104.983 1180.72 106.661 1181.51 108.832C1182.35 110.953 1182.94 113.47 1183.29 116.381C1183.68 119.292 1183.9 122.524 1183.95 126.077C1184.05 129.629 1184.1 133.404 1184.1 137.4C1184.1 141.348 1184.05 145.073 1183.95 148.576C1183.9 152.079 1183.68 155.287 1183.29 158.198C1182.94 161.109 1182.35 163.625 1181.51 165.747C1180.72 167.869 1179.61 169.546 1178.18 170.78C1176.75 172.063 1174.92 172.803 1172.7 173Z" fill="#1B1B1F"/>
<path d="M1208.85 162.12V102.171H1221.22C1223.98 102.171 1226.25 102.565 1228.03 103.355C1229.86 104.095 1231.26 105.156 1232.25 106.537C1233.29 107.919 1234 109.523 1234.4 111.348C1234.84 113.124 1235.06 115.049 1235.06 117.121C1235.06 118.7 1234.87 120.402 1234.47 122.228C1234.13 124.004 1233.46 125.583 1232.47 126.965C1231.49 128.346 1230 129.284 1228.03 129.777C1230.35 130.468 1232.1 131.652 1233.29 133.33C1234.52 135.007 1235.34 136.882 1235.73 138.955C1236.17 140.978 1236.4 142.877 1236.4 144.653C1236.4 146.923 1236.22 149.094 1235.88 151.167C1235.58 153.239 1234.97 155.114 1234.03 156.791C1233.09 158.42 1231.73 159.727 1229.96 160.714C1228.23 161.652 1225.91 162.12 1223 162.12H1208.85ZM1212.85 158.938H1222.48C1226.43 158.938 1229.07 157.778 1230.4 155.459C1231.78 153.14 1232.47 149.563 1232.47 144.727C1232.47 142.31 1232.18 140.114 1231.58 138.14C1231.04 136.167 1230.08 134.588 1228.7 133.404C1227.36 132.22 1225.49 131.627 1223.07 131.627H1212.85V158.938ZM1212.85 128.445H1223C1225.22 128.445 1226.92 127.927 1228.1 126.891C1229.29 125.855 1230.1 124.498 1230.55 122.82C1231.04 121.093 1231.29 119.193 1231.29 117.121C1231.29 114.901 1231.02 112.902 1230.47 111.126C1229.93 109.35 1228.87 107.968 1227.29 106.981C1225.76 105.945 1223.42 105.427 1220.26 105.427H1212.85V128.445Z" fill="#1B1B1F"/>
<path d="M1245.08 162.12V102.171H1249.08V162.12H1245.08Z" fill="#1B1B1F"/>
<path d="M1255.38 172.038V159.012H1257.52C1258.51 158.37 1259.4 157.729 1260.19 157.087C1261.03 156.397 1261.77 155.385 1262.41 154.053C1263.05 152.721 1263.64 150.846 1264.19 148.428C1264.78 145.961 1265.32 142.655 1265.82 138.511C1266.31 134.317 1266.8 129.012 1267.3 122.598L1268.85 102.171H1289.95V159.012H1294.32V172.038H1291.06L1290.62 162.12H1259.08L1258.63 172.038H1255.38ZM1262.04 159.012H1285.88V105.279H1272.55L1271.15 123.338C1270.65 129.752 1270.13 135.032 1269.59 139.177C1269.1 143.272 1268.58 146.528 1268.04 148.946C1267.49 151.364 1266.9 153.214 1266.26 154.497C1265.67 155.731 1265.03 156.668 1264.33 157.31C1263.64 157.902 1262.88 158.469 1262.04 159.012Z" fill="#1B1B1F"/>
<path d="M1302.05 162.12V102.171H1331.3V162.12H1327.3V105.279H1306.05V162.12H1302.05Z" fill="#1B1B1F"/>
<path d="M1355.95 162.934C1352.05 162.934 1349.01 162.17 1346.84 160.64C1344.72 159.061 1343.24 156.939 1342.4 154.275C1341.56 151.561 1341.14 148.502 1341.14 145.098V118.897C1341.14 115.493 1341.59 112.483 1342.47 109.868C1343.36 107.253 1344.87 105.205 1346.99 103.725C1349.16 102.245 1352.15 101.505 1355.95 101.505C1359.75 101.505 1362.71 102.245 1364.83 103.725C1367.01 105.205 1368.54 107.253 1369.42 109.868C1370.31 112.483 1370.76 115.493 1370.76 118.897V145.172C1370.76 148.576 1370.34 151.611 1369.5 154.275C1368.66 156.939 1367.15 159.061 1364.98 160.64C1362.86 162.17 1359.85 162.934 1355.95 162.934ZM1355.95 159.604C1358.81 159.604 1361.01 159.036 1362.54 157.902C1364.12 156.767 1365.2 155.188 1365.8 153.165C1366.39 151.093 1366.68 148.699 1366.68 145.986V118.305C1366.68 115.592 1366.39 113.223 1365.8 111.2C1365.2 109.177 1364.14 107.623 1362.61 106.537C1361.08 105.403 1358.86 104.835 1355.95 104.835C1353.09 104.835 1350.87 105.403 1349.29 106.537C1347.76 107.623 1346.69 109.177 1346.1 111.2C1345.51 113.223 1345.21 115.592 1345.21 118.305V145.986C1345.21 148.699 1345.51 151.093 1346.1 153.165C1346.69 155.188 1347.76 156.767 1349.29 157.902C1350.87 159.036 1353.09 159.604 1355.95 159.604Z" fill="#1B1B1F"/>
<path d="M1380.58 162.12V102.171H1392.94C1395.71 102.171 1397.98 102.565 1399.75 103.355C1401.58 104.095 1402.99 105.156 1403.97 106.537C1405.01 107.919 1405.73 109.523 1406.12 111.348C1406.56 113.124 1406.79 115.049 1406.79 117.121C1406.79 118.7 1406.59 120.402 1406.19 122.228C1405.85 124.004 1405.18 125.583 1404.2 126.965C1403.21 128.346 1401.73 129.284 1399.75 129.777C1402.07 130.468 1403.82 131.652 1405.01 133.33C1406.24 135.007 1407.06 136.882 1407.45 138.955C1407.9 140.978 1408.12 142.877 1408.12 144.653C1408.12 146.923 1407.95 149.094 1407.6 151.167C1407.3 153.239 1406.69 155.114 1405.75 156.791C1404.81 158.42 1403.45 159.727 1401.68 160.714C1399.95 161.652 1397.63 162.12 1394.72 162.12H1380.58ZM1384.57 158.938H1394.2C1398.15 158.938 1400.79 157.778 1402.12 155.459C1403.5 153.14 1404.2 149.563 1404.2 144.727C1404.2 142.31 1403.9 140.114 1403.31 138.14C1402.76 136.167 1401.8 134.588 1400.42 133.404C1399.09 132.22 1397.21 131.627 1394.79 131.627H1384.57V158.938ZM1384.57 128.445H1394.72C1396.94 128.445 1398.64 127.927 1399.83 126.891C1401.01 125.855 1401.83 124.498 1402.27 122.82C1402.76 121.093 1403.01 119.193 1403.01 117.121C1403.01 114.901 1402.74 112.902 1402.2 111.126C1401.65 109.35 1400.59 107.968 1399.01 106.981C1397.48 105.945 1395.14 105.427 1391.98 105.427H1384.57V128.445Z" fill="#1B1B1F"/>
<path d="M1416.8 162.12V102.171H1420.8V162.12H1416.8Z" fill="#1B1B1F"/>
<path d="M1427.1 172.038V159.012H1429.25C1430.23 158.37 1431.12 157.729 1431.91 157.087C1432.75 156.397 1433.49 155.385 1434.13 154.053C1434.77 152.721 1435.37 150.846 1435.91 148.428C1436.5 145.961 1437.04 142.655 1437.54 138.511C1438.03 134.317 1438.52 129.012 1439.02 122.598L1440.57 102.171H1461.67V159.012H1466.04V172.038H1462.79L1462.34 162.12H1430.8L1430.36 172.038H1427.1ZM1433.76 159.012H1457.6V105.279H1444.28L1442.87 123.338C1442.37 129.752 1441.86 135.032 1441.31 139.177C1440.82 143.272 1440.3 146.528 1439.76 148.946C1439.22 151.364 1438.62 153.214 1437.98 154.497C1437.39 155.731 1436.75 156.668 1436.06 157.31C1435.37 157.902 1434.6 158.469 1433.76 159.012Z" fill="#1B1B1F"/>
<path d="M1470.59 162.12L1483.18 102.171H1487.84L1500.5 162.12H1496.43L1493.32 145.542H1477.77L1474.59 162.12H1470.59ZM1478.37 142.581H1492.8L1485.55 107.056L1478.37 142.581Z" fill="#1B1B1F"/>
<path d="M1504.71 162.268V159.086C1506.29 158.987 1507.6 158.79 1508.63 158.494C1509.67 158.198 1510.51 157.507 1511.15 156.421C1511.79 155.336 1512.33 153.584 1512.78 151.167C1513.22 148.749 1513.64 145.394 1514.04 141.101C1514.48 136.808 1514.97 131.282 1515.52 124.522L1517.15 102.171H1538.62V162.12H1534.55V105.279H1520.92L1519.44 124.522C1518.9 131.282 1518.41 136.932 1517.96 141.471C1517.52 145.961 1517 149.588 1516.41 152.351C1515.86 155.114 1515.12 157.211 1514.19 158.642C1513.3 160.023 1512.09 160.961 1510.56 161.454C1509.03 161.948 1507.08 162.219 1504.71 162.268Z" fill="#1B1B1F"/>
<path d="M1549.62 162.12V102.171H1553.62V127.483H1560.36C1564.06 127.483 1567.1 128.149 1569.47 129.481C1571.84 130.764 1573.59 132.713 1574.72 135.328C1575.86 137.943 1576.43 141.224 1576.43 145.172C1576.43 147.639 1576.13 149.908 1575.54 151.981C1574.99 154.053 1574.08 155.854 1572.8 157.384C1571.56 158.864 1569.93 160.023 1567.91 160.862C1565.89 161.701 1563.42 162.12 1560.51 162.12H1549.62ZM1553.62 158.864H1560.66C1563.57 158.864 1565.86 158.346 1567.54 157.31C1569.27 156.224 1570.5 154.67 1571.24 152.647C1571.98 150.574 1572.35 148.058 1572.35 145.098C1572.35 140.608 1571.49 137.104 1569.76 134.588C1568.03 132.022 1564.97 130.739 1560.58 130.739H1553.62V158.864Z" fill="#1B1B1F"/>
<path d="M1583.68 162.12V102.171H1587.75V129.185H1608.78V102.171H1612.77V162.12H1608.78V132.294H1587.75V162.12H1583.68Z" fill="#1B1B1F"/>
<path d="M1637.43 162.934C1633.53 162.934 1630.49 162.17 1628.32 160.64C1626.2 159.061 1624.72 156.939 1623.88 154.275C1623.04 151.561 1622.62 148.502 1622.62 145.098V118.897C1622.62 115.493 1623.07 112.483 1623.95 109.868C1624.84 107.253 1626.35 105.205 1628.47 103.725C1630.64 102.245 1633.63 101.505 1637.43 101.505C1641.23 101.505 1644.19 102.245 1646.31 103.725C1648.49 105.205 1650.02 107.253 1650.9 109.868C1651.79 112.483 1652.24 115.493 1652.24 118.897V145.172C1652.24 148.576 1651.82 151.611 1650.98 154.275C1650.14 156.939 1648.63 159.061 1646.46 160.64C1644.34 162.17 1641.33 162.934 1637.43 162.934ZM1637.43 159.604C1640.29 159.604 1642.49 159.036 1644.02 157.902C1645.6 156.767 1646.68 155.188 1647.28 153.165C1647.87 151.093 1648.16 148.699 1648.16 145.986V118.305C1648.16 115.592 1647.87 113.223 1647.28 111.2C1646.68 109.177 1645.62 107.623 1644.09 106.537C1642.56 105.403 1640.34 104.835 1637.43 104.835C1634.57 104.835 1632.34 105.403 1630.77 106.537C1629.24 107.623 1628.17 109.177 1627.58 111.2C1626.99 113.223 1626.69 115.592 1626.69 118.305V145.986C1626.69 148.699 1626.99 151.093 1627.58 153.165C1628.17 155.188 1629.24 156.767 1630.77 157.902C1632.34 159.036 1634.57 159.604 1637.43 159.604Z" fill="#1B1B1F"/>
<path d="M1662.13 162.12V102.171H1666.13V162.12H1662.13ZM1668.05 90.6249V85H1672.2V90.6249H1668.05ZM1656.21 90.6249V85H1660.28V90.6249H1656.21Z" fill="#1B1B1F"/>
<path d="M1691.34 162.12V102.171H1711.7V105.427H1695.34V162.12H1691.34Z" fill="#1B1B1F"/>
<path d="M1718.67 162.12V102.171H1732.74C1736.34 102.171 1739.15 102.862 1741.18 104.243C1743.2 105.575 1744.61 107.401 1745.4 109.72C1746.24 112.039 1746.66 114.679 1746.66 117.639C1746.66 120.304 1746.24 122.845 1745.4 125.262C1744.61 127.68 1743.2 129.654 1741.18 131.183C1739.15 132.713 1736.37 133.478 1732.81 133.478H1722.67V162.12H1718.67ZM1722.67 130.369H1731.92C1734.34 130.369 1736.32 129.95 1737.85 129.111C1739.43 128.272 1740.59 126.94 1741.33 125.114C1742.12 123.239 1742.51 120.748 1742.51 117.639C1742.51 114.432 1742.17 111.94 1741.47 110.164C1740.78 108.338 1739.67 107.08 1738.14 106.389C1736.61 105.649 1734.56 105.279 1732 105.279H1722.67V130.369Z" fill="#1B1B1F"/>
<path d="M1754.53 162.12V102.171H1758.16V153.239L1778.67 102.171H1782V162.12H1778.37V111.052L1757.94 162.12H1754.53Z" fill="#1B1B1F"/>
</svg>
