<svg width="375" height="113" viewBox="0 0 375 113" fill="none" xmlns="http://www.w3.org/2000/svg">
<rect width="375" height="113" fill="white"/>
<path d="M14.8274 37.4619L14.8485 36.2378C15.5356 36.2568 16.0755 36.1998 16.4682 36.067C16.8749 35.9531 17.1764 35.7254 17.3727 35.3838C17.569 35.0612 17.7093 34.6057 17.7934 34.0174C17.8916 33.4101 17.9757 32.6415 18.0458 31.7116L14.2384 11.7562H15.3743L17.3096 22.4029L18.6138 29.8897L19.7497 22.3459L21.4535 11.7562H22.6105L19.2238 31.8539C19.0836 32.7459 18.9503 33.524 18.8241 34.1882C18.6979 34.8334 18.5507 35.3648 18.3824 35.7823C18.2141 36.2188 17.9897 36.5604 17.7093 36.8071C17.4288 37.0728 17.0572 37.2531 16.5944 37.348C16.1316 37.4429 15.5426 37.4809 14.8274 37.4619Z" fill="#1B1B1F"/>
<path d="M30.9435 34.8145V24.1109C30.0601 24.4525 29.2257 24.6233 28.4403 24.6233C27.5569 24.6233 26.7926 24.462 26.1475 24.1393C25.5164 23.7977 25.0256 23.2664 24.675 22.5452C24.3244 21.805 24.1492 20.8372 24.1492 19.6416V11.7562H25.3061V19.6416C25.3061 20.6853 25.4533 21.4824 25.7478 22.0328C26.0423 22.5831 26.435 22.9627 26.9258 23.1715C27.4306 23.3802 27.9916 23.4846 28.6086 23.4846C29.0574 23.4846 29.4781 23.4372 29.8707 23.3423C30.2774 23.2284 30.635 23.0955 30.9435 22.9437V11.7562H32.1005V34.8145H30.9435Z" fill="#1B1B1F"/>
<path d="M34.3488 34.8145L37.9248 11.7562H39.25L42.847 34.8145H41.6901L40.8066 28.4379H36.3892L35.4847 34.8145H34.3488ZM36.5575 27.2992H40.6593L38.5979 13.635L36.5575 27.2992Z" fill="#1B1B1F"/>
<path d="M48.8793 35.1276C47.7575 35.1276 46.895 34.8145 46.292 34.1882C45.703 33.5619 45.2963 32.7269 45.072 31.6831C44.8476 30.6203 44.7354 29.4532 44.7354 28.1817V18.389C44.7354 17.0606 44.8546 15.8839 45.093 14.8591C45.3314 13.8153 45.7521 12.9993 46.3551 12.4109C46.9581 11.8036 47.7995 11.5 48.8793 11.5C49.875 11.5 50.6533 11.7657 51.2143 12.2971C51.7752 12.8285 52.1749 13.5876 52.4133 14.5744C52.6517 15.5423 52.7709 16.681 52.7709 17.9905V19.1576H51.677V17.9905C51.677 16.8897 51.5999 15.9598 51.4456 15.2007C51.2914 14.4226 51.0109 13.8248 50.6042 13.4073C50.1976 12.9898 49.6226 12.781 48.8793 12.781C48.066 12.781 47.4419 13.0088 47.0072 13.4642C46.5725 13.9197 46.278 14.5555 46.1237 15.3715C45.9695 16.1876 45.8923 17.1365 45.8923 18.2182V28.4094C45.8923 29.5481 45.9765 30.5254 46.1448 31.3415C46.313 32.1386 46.6146 32.7553 47.0493 33.1918C47.484 33.6283 48.094 33.8466 48.8793 33.8466C49.6366 33.8466 50.2186 33.6283 50.6253 33.1918C51.032 32.7553 51.3054 32.148 51.4456 31.3699C51.5999 30.5729 51.677 29.6524 51.677 28.6087V27.2138H52.7709V28.3525C52.7709 29.6619 52.6587 30.8291 52.4343 31.8539C52.2099 32.8787 51.8173 33.6853 51.2563 34.2736C50.6954 34.8429 49.9031 35.1276 48.8793 35.1276Z" fill="#1B1B1F"/>
<path d="M57.6354 34.8145V13.0088H54.2277V11.7562H62.0949V13.0088H58.7713V34.8145H57.6354Z" fill="#1B1B1F"/>
<path d="M64.0946 34.8145V11.7562H65.2305V21.4919H67.1447C68.1964 21.4919 69.0589 21.7481 69.732 22.2605C70.4051 22.7539 70.903 23.5036 71.2255 24.5094C71.548 25.5152 71.7093 26.7773 71.7093 28.2955C71.7093 29.2444 71.6252 30.1174 71.4569 30.9145C71.3026 31.7116 71.0432 32.4042 70.6786 32.9926C70.328 33.5619 69.8652 34.0079 69.2903 34.3305C68.7153 34.6531 68.0141 34.8145 67.1867 34.8145H64.0946ZM65.2305 33.5619H67.2288C68.0562 33.5619 68.7083 33.3626 69.1851 32.9641C69.6759 32.5466 70.0265 31.9488 70.2368 31.1707C70.4472 30.3736 70.5524 29.4057 70.5524 28.267C70.5524 26.5401 70.307 25.1926 69.8161 24.2247C69.3253 23.2379 68.4559 22.7445 67.2078 22.7445H65.2305V33.5619Z" fill="#1B1B1F"/>
<path d="M77.7757 34.8145V11.7562H81.2886C82.0739 11.7562 82.7189 11.908 83.2238 12.2117C83.7427 12.4963 84.1423 12.9044 84.4228 13.4358C84.7173 13.9671 84.9206 14.5839 85.0328 15.2861C85.159 15.9693 85.2221 16.7095 85.2221 17.5065C85.2221 18.1138 85.166 18.7686 85.0539 19.4708C84.9557 20.154 84.7664 20.7613 84.4859 21.2926C84.2054 21.824 83.7847 22.1846 83.2238 22.3744C83.8829 22.6401 84.3807 23.0955 84.7173 23.7408C85.0679 24.3861 85.2993 25.1072 85.4115 25.9043C85.5377 26.6824 85.6008 27.413 85.6008 28.0962C85.6008 28.9692 85.5517 29.8043 85.4535 30.6013C85.3694 31.3984 85.1941 32.1196 84.9277 32.7648C84.6612 33.3911 84.2756 33.894 83.7707 34.2736C83.2799 34.6342 82.6208 34.8145 81.7934 34.8145H77.7757ZM78.9116 33.5904H81.6462C82.768 33.5904 83.5183 33.1444 83.8969 32.2524C84.2896 31.3605 84.4859 29.9846 84.4859 28.1247C84.4859 27.1948 84.4018 26.3503 84.2335 25.5912C84.0792 24.832 83.8058 24.2247 83.4131 23.7693C83.0345 23.3138 82.5016 23.0861 81.8144 23.0861H78.9116V33.5904ZM78.9116 21.862H81.7934C82.4245 21.862 82.9083 21.6627 83.2448 21.2642C83.5814 20.8656 83.8128 20.3437 83.939 19.6985C84.0792 19.0343 84.1493 18.3036 84.1493 17.5065C84.1493 16.6525 84.0722 15.8839 83.918 15.2007C83.7637 14.5175 83.4622 13.9861 83.0134 13.6066C82.5787 13.208 81.9126 13.0088 81.0151 13.0088H78.9116V21.862Z" fill="#1B1B1F"/>
<path d="M91.1274 34.8145L94.7034 11.7562H96.0287L99.6257 34.8145H98.4687L97.5853 28.4379H93.1679L92.2634 34.8145H91.1274ZM93.3361 27.2992H97.438L95.3766 13.635L93.3361 27.2992Z" fill="#1B1B1F"/>
<path d="M105.3 35.1276C104.445 35.1276 103.751 34.8999 103.218 34.4444C102.699 33.9889 102.32 33.3626 102.082 32.5656C101.844 31.7495 101.724 30.7911 101.724 29.6904V29.2634H102.776C102.776 29.3013 102.776 29.3962 102.776 29.5481C102.776 29.6809 102.776 29.7663 102.776 29.8043C102.79 31.1327 102.994 32.148 103.386 32.8502C103.779 33.5524 104.417 33.9035 105.3 33.9035C105.833 33.9035 106.31 33.7612 106.731 33.4765C107.152 33.1729 107.481 32.6415 107.719 31.8824C107.972 31.1232 108.098 30.0605 108.098 28.6941C108.098 27.1758 107.874 25.9233 107.425 24.9364C106.976 23.9496 106.212 23.4372 105.132 23.3992C105.118 23.3992 105.027 23.3992 104.859 23.3992C104.69 23.3992 104.522 23.3992 104.354 23.3992C104.186 23.3992 104.087 23.3992 104.059 23.3992V22.2605C104.087 22.2605 104.186 22.2605 104.354 22.2605C104.522 22.2605 104.69 22.2605 104.859 22.2605C105.027 22.2605 105.111 22.2605 105.111 22.2605C106.205 22.2226 106.976 21.7956 107.425 20.9795C107.874 20.1445 108.098 18.8729 108.098 17.1649C108.098 15.8744 107.895 14.8117 107.488 13.9766C107.095 13.1416 106.422 12.7241 105.469 12.7241C104.571 12.7241 103.877 13.0277 103.386 13.635C102.909 14.2423 102.664 15.3051 102.65 16.8233C102.65 16.8613 102.65 16.9372 102.65 17.0511C102.65 17.146 102.65 17.2124 102.65 17.2503H101.598V16.8803C101.598 15.7985 101.717 14.8591 101.956 14.062C102.208 13.246 102.615 12.6197 103.176 12.1832C103.737 11.7277 104.487 11.5 105.427 11.5C106.296 11.5 107.011 11.7562 107.572 12.2686C108.133 12.762 108.547 13.4358 108.813 14.2898C109.094 15.1438 109.234 16.1117 109.234 17.1934C109.234 18.9204 108.996 20.2489 108.519 21.1788C108.042 22.0897 107.46 22.6401 106.773 22.8299C107.138 22.9437 107.509 23.2094 107.888 23.6269C108.266 24.0255 108.582 24.6328 108.834 25.4488C109.101 26.2649 109.234 27.3371 109.234 28.6656C109.234 29.9181 109.101 31.0378 108.834 32.0247C108.582 32.9926 108.168 33.7517 107.593 34.302C107.018 34.8524 106.254 35.1276 105.3 35.1276Z" fill="#1B1B1F"/>
<path d="M110.643 34.8145L114.219 11.7562H115.544L119.141 34.8145H117.984L117.1 28.4379H112.683L111.778 34.8145H110.643ZM112.851 27.2992H116.953L114.892 13.635L112.851 27.2992Z" fill="#1B1B1F"/>
<path d="M121.387 34.8145V11.7562H125.383C126.407 11.7562 127.207 12.0219 127.782 12.5533C128.356 13.0657 128.756 13.7679 128.981 14.6598C129.219 15.5518 129.338 16.5671 129.338 17.7058C129.338 18.7306 129.219 19.708 128.981 20.6379C128.756 21.5678 128.356 22.3269 127.782 22.9153C127.207 23.5036 126.414 23.7977 125.405 23.7977H122.523V34.8145H121.387ZM122.523 22.6021H125.152C125.839 22.6021 126.4 22.4408 126.835 22.1182C127.284 21.7956 127.613 21.2832 127.824 20.581C128.048 19.8598 128.16 18.9014 128.16 17.7058C128.16 16.4722 128.062 15.5138 127.866 14.8306C127.669 14.1285 127.354 13.6445 126.919 13.3788C126.484 13.0942 125.902 12.9518 125.173 12.9518H122.523V22.6021Z" fill="#1B1B1F"/>
<path d="M133.847 34.8145V13.0088H130.439V11.7562H138.306V13.0088H134.983V34.8145H133.847Z" fill="#1B1B1F"/>
<path d="M140.285 34.8145V11.7562H141.442V22.1466H147.416V11.7562H148.552V34.8145H147.416V23.3423H141.442V34.8145H140.285Z" fill="#1B1B1F"/>
<path d="M151.686 34.8145V11.7562H152.717V31.3984L158.544 11.7562H159.49V34.8145H158.459V15.1722L152.654 34.8145H151.686Z" fill="#1B1B1F"/>
<path d="M161.373 34.8145L165.118 22.8583L161.394 11.7562H162.446L165.791 21.6058L169.051 11.7562H170.187L166.296 23.0861L170.271 34.8145H169.156L165.644 24.4525L162.509 34.8145H161.373Z" fill="#1B1B1F"/>
<path d="M176.153 34.8145V11.7562H177.289V34.8145H176.153Z" fill="#1B1B1F"/>
<path d="M180.466 34.8145V11.7562H186.251V13.0088H181.602V34.8145H180.466Z" fill="#1B1B1F"/>
<path d="M188.231 34.8145V11.7562H192.228C193.252 11.7562 194.051 12.0219 194.626 12.5533C195.201 13.0657 195.6 13.7679 195.825 14.6598C196.063 15.5518 196.182 16.5671 196.182 17.7058C196.182 18.7306 196.063 19.708 195.825 20.6379C195.6 21.5678 195.201 22.3269 194.626 22.9153C194.051 23.5036 193.259 23.7977 192.249 23.7977H189.367V34.8145H188.231ZM189.367 22.6021H191.996C192.684 22.6021 193.245 22.4408 193.679 22.1182C194.128 21.7956 194.458 21.2832 194.668 20.581C194.892 19.8598 195.004 18.9014 195.004 17.7058C195.004 16.4722 194.906 15.5138 194.71 14.8306C194.514 14.1285 194.198 13.6445 193.763 13.3788C193.329 13.0942 192.747 12.9518 192.017 12.9518H189.367V22.6021Z" fill="#1B1B1F"/>
<path d="M197.166 34.8145L200.742 11.7562H202.068L205.665 34.8145H204.508L203.624 28.4379H199.207L198.302 34.8145H197.166ZM199.375 27.2992H203.477L201.415 13.635L199.375 27.2992Z" fill="#1B1B1F"/>
<path d="M206.648 34.8145L210.393 22.8583L206.669 11.7562H207.721L211.066 21.6058L214.326 11.7562H215.462L211.571 23.0861L215.546 34.8145H214.432L210.919 24.4525L207.784 34.8145H206.648Z" fill="#1B1B1F"/>
<path d="M221.196 34.8145L221.701 11.7562H222.837L226.434 32.5656L230.094 11.7562H231.272L231.756 34.8145H230.768L230.347 15.4854L226.876 34.8145H226.035L222.606 15.5138L222.185 34.8145H221.196Z" fill="#1B1B1F"/>
<path d="M238.547 35.1276C237.439 35.1276 236.577 34.8334 235.96 34.2451C235.357 33.6378 234.936 32.8218 234.698 31.797C234.459 30.7532 234.34 29.5765 234.34 28.267V18.1897C234.34 16.8803 234.466 15.7226 234.719 14.7168C234.971 13.7109 235.399 12.9233 236.002 12.354C236.619 11.7847 237.467 11.5 238.547 11.5C239.627 11.5 240.468 11.7847 241.071 12.354C241.688 12.9233 242.123 13.7109 242.375 14.7168C242.628 15.7226 242.754 16.8803 242.754 18.1897V28.2955C242.754 29.605 242.635 30.7721 242.397 31.797C242.158 32.8218 241.73 33.6378 241.113 34.2451C240.51 34.8334 239.655 35.1276 238.547 35.1276ZM238.547 33.8466C239.36 33.8466 239.984 33.6283 240.419 33.1918C240.868 32.7553 241.176 32.148 241.345 31.3699C241.513 30.5729 241.597 29.6524 241.597 28.6087V17.962C241.597 16.9182 241.513 16.0073 241.345 15.2292C241.176 14.4511 240.875 13.8533 240.44 13.4358C240.006 12.9993 239.374 12.781 238.547 12.781C237.734 12.781 237.103 12.9993 236.654 13.4358C236.219 13.8533 235.918 14.4511 235.749 15.2292C235.581 16.0073 235.497 16.9182 235.497 17.962V28.6087C235.497 29.6524 235.581 30.5729 235.749 31.3699C235.918 32.148 236.219 32.7553 236.654 33.1918C237.103 33.6283 237.734 33.8466 238.547 33.8466Z" fill="#1B1B1F"/>
<path d="M244.408 34.8145L248.783 22.7729L244.808 11.7562H245.923L249.751 22.6875H249.898V11.7562H250.95V22.6875H251.097L254.926 11.7562H256.04L252.065 22.7729L256.44 34.8145H255.304L251.16 23.0861H250.95V34.8145H249.898V23.0861H249.667L245.544 34.8145H244.408Z" fill="#1B1B1F"/>
<path d="M258.444 34.8145V11.7562H264.334V13.0088H259.601V22.2605H263.492V23.4561H259.601V33.5904H264.397V34.8145H258.444Z" fill="#1B1B1F"/>
<path d="M270.708 34.8145V11.7562H274.221C275.006 11.7562 275.651 11.908 276.156 12.2117C276.675 12.4963 277.075 12.9044 277.355 13.4358C277.65 13.9671 277.853 14.5839 277.965 15.2861C278.091 15.9693 278.155 16.7095 278.155 17.5065C278.155 18.1138 278.099 18.7686 277.986 19.4708C277.888 20.154 277.699 20.7613 277.418 21.2926C277.138 21.824 276.717 22.1846 276.156 22.3744C276.815 22.6401 277.313 23.0955 277.65 23.7408C278 24.3861 278.232 25.1072 278.344 25.9043C278.47 26.6824 278.533 27.413 278.533 28.0962C278.533 28.9692 278.484 29.8043 278.386 30.6013C278.302 31.3984 278.127 32.1196 277.86 32.7648C277.594 33.3911 277.208 33.894 276.703 34.2736C276.212 34.6342 275.553 34.8145 274.726 34.8145H270.708ZM271.844 33.5904H274.579C275.701 33.5904 276.451 33.1444 276.829 32.2524C277.222 31.3605 277.418 29.9846 277.418 28.1247C277.418 27.1948 277.334 26.3503 277.166 25.5912C277.012 24.832 276.738 24.2247 276.346 23.7693C275.967 23.3138 275.434 23.0861 274.747 23.0861H271.844V33.5904ZM271.844 21.862H274.726C275.357 21.862 275.841 21.6627 276.177 21.2642C276.514 20.8656 276.745 20.3437 276.871 19.6985C277.012 19.0343 277.082 18.3036 277.082 17.5065C277.082 16.6525 277.005 15.8839 276.85 15.2007C276.696 14.5175 276.395 13.9861 275.946 13.6066C275.511 13.208 274.845 13.0088 273.948 13.0088H271.844V21.862Z" fill="#1B1B1F"/>
<path d="M280.958 34.8145V11.7562H281.989V31.3984L287.816 11.7562H288.762V34.8145H287.732V15.1722L281.926 34.8145H280.958Z" fill="#1B1B1F"/>
<path d="M291.887 34.8145V11.7562H293.044V22.5737H294.453L298.197 11.7562H299.375L295.463 22.9437L300.006 34.8145H298.849L294.453 23.4846H293.044V34.8145H291.887Z" fill="#1B1B1F"/>
<path d="M300.716 34.8714V33.6473C301.165 33.6094 301.537 33.5334 301.831 33.4196C302.126 33.3057 302.364 33.04 302.546 32.6225C302.729 32.205 302.883 31.5313 303.009 30.6013C303.135 29.6714 303.254 28.3809 303.367 26.7298C303.493 25.0787 303.633 22.9532 303.787 20.3532L304.25 11.7562H310.35V34.8145H309.193V12.9518H305.323L304.902 20.3532C304.748 22.9532 304.608 25.1262 304.482 26.8722C304.355 28.5992 304.208 29.994 304.04 31.0568C303.885 32.1196 303.675 32.9261 303.409 33.4765C303.156 34.0079 302.813 34.3685 302.378 34.5583C301.943 34.748 301.389 34.8524 300.716 34.8714Z" fill="#1B1B1F"/>
<path d="M313.456 34.8145V11.7562H314.487V31.3984L320.313 11.7562H321.26V34.8145H320.229V15.1722L314.424 34.8145H313.456Z" fill="#1B1B1F"/>
<path d="M324.384 34.8145V11.7562H325.541V22.5737H326.951L330.695 11.7562H331.873L327.96 22.9437L332.504 34.8145H331.347L326.951 23.4846H325.541V34.8145H324.384Z" fill="#1B1B1F"/>
<path d="M333.361 34.8145L336.937 11.7562H338.262L341.859 34.8145H340.703L339.819 28.4379H335.402L334.497 34.8145H333.361ZM335.57 27.2992H339.672L337.61 13.635L335.57 27.2992Z" fill="#1B1B1F"/>
<path d="M345.596 34.8145V13.0088H342.188V11.7562H350.056V13.0088H346.732V34.8145H345.596Z" fill="#1B1B1F"/>
<path d="M352.034 34.8145V11.7562H353.065V31.3984L358.892 11.7562H359.838V34.8145H358.808V15.1722L353.002 34.8145H352.034Z" fill="#1B1B1F"/>
<path d="M12 66.0649V43.0067H13.1359V66.0649H12Z" fill="#1B1B1F"/>
<path d="M16.3134 66.0649V43.0067H22.0981V44.2592H17.4493V66.0649H16.3134Z" fill="#1B1B1F"/>
<path d="M24.0783 66.0649V43.0067H28.075C29.0987 43.0067 29.8981 43.2723 30.473 43.8037C31.048 44.3161 31.4477 45.0183 31.672 45.9103C31.9104 46.8022 32.0296 47.8176 32.0296 48.9562C32.0296 49.9811 31.9104 50.9584 31.672 51.8883C31.4477 52.8183 31.048 53.5774 30.473 54.1657C29.8981 54.754 29.1057 55.0482 28.0961 55.0482H25.2142V66.0649H24.0783ZM25.2142 53.8526H27.8436C28.5308 53.8526 29.0917 53.6913 29.5265 53.3686C29.9752 53.046 30.3048 52.5336 30.5151 51.8314C30.7395 51.1102 30.8517 50.1519 30.8517 48.9562C30.8517 47.7227 30.7535 46.7643 30.5572 46.0811C30.3608 45.3789 30.0453 44.895 29.6106 44.6293C29.1759 44.3446 28.5939 44.2023 27.8647 44.2023H25.2142V53.8526Z" fill="#1B1B1F"/>
<path d="M38.1373 66.378C37.0294 66.378 36.167 66.0839 35.5499 65.4956C34.9469 64.8883 34.5262 64.0722 34.2878 63.0474C34.0494 62.0036 33.9302 60.827 33.9302 59.5175V49.4402C33.9302 48.1307 34.0564 46.973 34.3088 45.9672C34.5613 44.9614 34.989 44.1738 35.592 43.6045C36.209 43.0351 37.0574 42.7504 38.1373 42.7504C39.2171 42.7504 40.0585 43.0351 40.6615 43.6045C41.2785 44.1738 41.7132 44.9614 41.9657 45.9672C42.2181 46.973 42.3443 48.1307 42.3443 49.4402V59.546C42.3443 60.8554 42.2251 62.0226 41.9867 63.0474C41.7483 64.0722 41.3206 64.8883 40.7036 65.4956C40.1005 66.0839 39.2451 66.378 38.1373 66.378ZM38.1373 65.097C38.9506 65.097 39.5747 64.8788 40.0094 64.4423C40.4581 64.0058 40.7667 63.3985 40.9349 62.6204C41.1032 61.8233 41.1874 60.9029 41.1874 59.8591V49.2125C41.1874 48.1687 41.1032 47.2577 40.9349 46.4796C40.7667 45.7015 40.4651 45.1037 40.0304 44.6862C39.5957 44.2497 38.9646 44.0315 38.1373 44.0315C37.3239 44.0315 36.6928 44.2497 36.2441 44.6862C35.8094 45.1037 35.5078 45.7015 35.3396 46.4796C35.1713 47.2577 35.0871 48.1687 35.0871 49.2125V59.8591C35.0871 60.9029 35.1713 61.8233 35.3396 62.6204C35.5078 63.3985 35.8094 64.0058 36.2441 64.4423C36.6928 64.8788 37.3239 65.097 38.1373 65.097Z" fill="#1B1B1F"/>
<path d="M45.1341 66.0649V43.0067H48.647C49.4323 43.0067 50.0774 43.1585 50.5822 43.4621C51.1011 43.7468 51.5008 44.1548 51.7812 44.6862C52.0757 45.2176 52.2791 45.8344 52.3912 46.5366C52.5175 47.2198 52.5806 47.9599 52.5806 48.757C52.5806 49.3643 52.5245 50.019 52.4123 50.7212C52.3141 51.4044 52.1248 52.0117 51.8443 52.5431C51.5639 53.0745 51.1432 53.4351 50.5822 53.6248C51.2413 53.8905 51.7392 54.346 52.0757 54.9912C52.4263 55.6365 52.6577 56.3577 52.7699 57.1547C52.8961 57.9328 52.9592 58.6635 52.9592 59.3467C52.9592 60.2197 52.9101 61.0547 52.812 61.8518C52.7278 62.6489 52.5525 63.37 52.2861 64.0153C52.0196 64.6416 51.634 65.1445 51.1291 65.524C50.6383 65.8846 49.9792 66.0649 49.1518 66.0649H45.1341ZM46.27 64.8408H49.0046C50.1265 64.8408 50.8767 64.3948 51.2553 63.5029C51.648 62.6109 51.8443 61.235 51.8443 59.3752C51.8443 58.4452 51.7602 57.6007 51.5919 56.8416C51.4377 56.0825 51.1642 55.4752 50.7715 55.0197C50.3929 54.5642 49.86 54.3365 49.1729 54.3365H46.27V64.8408ZM46.27 53.1124H49.1518C49.7829 53.1124 50.2667 52.9132 50.6033 52.5146C50.9398 52.1161 51.1712 51.5942 51.2974 50.9489C51.4376 50.2847 51.5078 49.5541 51.5078 48.757C51.5078 47.903 51.4306 47.1344 51.2764 46.4512C51.1221 45.7679 50.8206 45.2366 50.3719 44.857C49.9371 44.4585 49.271 44.2592 48.3735 44.2592H46.27V53.1124Z" fill="#1B1B1F"/>
<path d="M55.1107 68.7123L55.1317 67.4883C55.8189 67.5072 56.3588 67.4503 56.7515 67.3175C57.1581 67.2036 57.4596 66.9758 57.656 66.6342C57.8523 66.3116 57.9925 65.8561 58.0767 65.2678C58.1748 64.6605 58.259 63.8919 58.3291 62.962L54.5217 43.0067H55.6576L57.5929 53.6533L58.897 61.1401L60.033 53.5964L61.7368 43.0067H62.8937L59.5071 63.1043C59.3668 63.9963 59.2336 64.7744 59.1074 65.4386C58.9812 66.0839 58.8339 66.6153 58.6657 67.0328C58.4974 67.4693 58.273 67.8109 57.9925 68.0576C57.7121 68.3233 57.3404 68.5036 56.8777 68.5985C56.4149 68.6934 55.8259 68.7313 55.1107 68.7123Z" fill="#1B1B1F"/>
<path d="M72.3302 66.378C71.4747 66.378 70.7806 66.1503 70.2477 65.6948C69.7288 65.2394 69.3502 64.6131 69.1118 63.816C68.8734 63 68.7542 62.0416 68.7542 60.9408V60.5138H69.8059C69.8059 60.5518 69.8059 60.6467 69.8059 60.7985C69.8059 60.9314 69.8059 61.0168 69.8059 61.0547C69.82 62.3832 70.0233 63.3985 70.416 64.1007C70.8086 64.8029 71.4467 65.154 72.3302 65.154C72.8631 65.154 73.3399 65.0116 73.7606 64.727C74.1813 64.4233 74.5108 63.8919 74.7492 63.1328C75.0016 62.3737 75.1279 61.3109 75.1279 59.9445C75.1279 58.4263 74.9035 57.1737 74.4547 56.1869C74.006 55.2 73.2417 54.6876 72.1619 54.6496C72.1479 54.6496 72.0567 54.6496 71.8884 54.6496C71.7202 54.6496 71.5519 54.6496 71.3836 54.6496C71.2153 54.6496 71.1171 54.6496 71.0891 54.6496V53.511C71.1171 53.511 71.2153 53.511 71.3836 53.511C71.5519 53.511 71.7202 53.511 71.8884 53.511C72.0567 53.511 72.1409 53.511 72.1409 53.511C73.2347 53.473 74.006 53.046 74.4547 52.2299C74.9035 51.3949 75.1279 50.1234 75.1279 48.4154C75.1279 47.1249 74.9245 46.0621 74.5178 45.2271C74.1252 44.392 73.4521 43.9745 72.4985 43.9745C71.601 43.9745 70.9068 44.2782 70.416 44.8855C69.9392 45.4928 69.6938 46.5555 69.6797 48.0738C69.6797 48.1117 69.6797 48.1876 69.6797 48.3015C69.6797 48.3964 69.6797 48.4628 69.6797 48.5008H68.628V48.1307C68.628 47.049 68.7472 46.1096 68.9856 45.3125C69.238 44.4964 69.6447 43.8702 70.2056 43.4337C70.7666 42.9782 71.5168 42.7504 72.4564 42.7504C73.3258 42.7504 74.041 43.0066 74.602 43.5191C75.1629 44.0125 75.5766 44.6862 75.8431 45.5402C76.1235 46.3942 76.2638 47.3621 76.2638 48.4438C76.2638 50.1708 76.0254 51.4993 75.5486 52.4292C75.0718 53.3402 74.4898 53.8905 73.8026 54.0803C74.1673 54.1942 74.5389 54.4599 74.9175 54.8774C75.2961 55.2759 75.6117 55.8832 75.8641 56.6993C76.1305 57.5153 76.2638 58.5876 76.2638 59.916C76.2638 61.1686 76.1305 62.2883 75.8641 63.2751C75.6117 64.243 75.198 65.0021 74.623 65.5525C74.0481 66.1029 73.2838 66.378 72.3302 66.378Z" fill="#1B1B1F"/>
<path d="M77.6723 66.0649L81.2483 43.0067H82.5735L86.1705 66.0649H85.0136L84.1301 59.6883H79.7127L78.8082 66.0649H77.6723ZM79.881 58.5496H83.9829L81.9214 44.8855L79.881 58.5496Z" fill="#1B1B1F"/>
<path d="M87.3648 66.1218V64.8978C87.8135 64.8598 88.1852 64.7839 88.4796 64.67C88.7741 64.5562 89.0125 64.2905 89.1948 63.8729C89.3771 63.4554 89.5314 62.7817 89.6576 61.8518C89.7838 60.9219 89.903 59.6314 90.0152 57.9803C90.1414 56.3292 90.2817 54.2037 90.4359 51.6037L90.8987 43.0067H96.9989V66.0649H95.842V44.2023H91.9715L91.5508 51.6037C91.3965 54.2037 91.2563 56.3766 91.1301 58.1226C91.0039 59.8496 90.8566 61.2445 90.6883 62.3073C90.5341 63.37 90.3237 64.1766 90.0573 64.727C89.8049 65.2583 89.4613 65.6189 89.0266 65.8087C88.5918 65.9985 88.0379 66.1029 87.3648 66.1218Z" fill="#1B1B1F"/>
<path d="M100.105 66.0649V43.0067H105.994V44.2592H101.262V53.511H105.153V54.7066H101.262V64.8408H106.058V66.0649H100.105Z" fill="#1B1B1F"/>
<path d="M107.248 66.0649L111.623 54.0234L107.647 43.0067H108.762L112.591 53.938H112.738V43.0067H113.79V53.938H113.937L117.765 43.0067H118.88L114.904 54.0234L119.28 66.0649H118.144L114 54.3365H113.79V66.0649H112.738V54.3365H112.506L108.384 66.0649H107.248Z" fill="#1B1B1F"/>
<path d="M121.284 66.0649V43.0067H122.441V53.3971H128.415V43.0067H129.55V66.0649H128.415V54.5927H122.441V66.0649H121.284Z" fill="#1B1B1F"/>
<path d="M132.727 66.0649V43.0067H133.862V66.0649H132.727Z" fill="#1B1B1F"/>
<path d="M140.826 66.378C139.704 66.378 138.842 66.0649 138.239 65.4386C137.65 64.8124 137.243 63.9773 137.019 62.9335C136.795 61.8708 136.682 60.7036 136.682 59.4321V49.6395C136.682 48.311 136.802 47.1344 137.04 46.1096C137.278 45.0658 137.699 44.2497 138.302 43.6614C138.905 43.0541 139.746 42.7504 140.826 42.7504C141.822 42.7504 142.6 43.0161 143.161 43.5475C143.722 44.0789 144.122 44.838 144.36 45.8249C144.599 46.7928 144.718 47.9314 144.718 49.2409V50.4081H143.624V49.2409C143.624 48.1402 143.547 47.2103 143.393 46.4512C143.238 45.6731 142.958 45.0752 142.551 44.6577C142.145 44.2402 141.57 44.0315 140.826 44.0315C140.013 44.0315 139.389 44.2592 138.954 44.7147C138.519 45.1701 138.225 45.8059 138.071 46.622C137.916 47.438 137.839 48.3869 137.839 49.4687V59.6598C137.839 60.7985 137.923 61.7759 138.092 62.5919C138.26 63.389 138.562 64.0058 138.996 64.4423C139.431 64.8788 140.041 65.097 140.826 65.097C141.584 65.097 142.166 64.8788 142.572 64.4423C142.979 64.0058 143.252 63.3985 143.393 62.6204C143.547 61.8233 143.624 60.9029 143.624 59.8591V58.4642H144.718V59.6029C144.718 60.9124 144.606 62.0795 144.381 63.1043C144.157 64.1292 143.764 64.9357 143.203 65.524C142.642 66.0934 141.85 66.378 140.826 66.378Z" fill="#1B1B1F"/>
<path d="M149.582 66.0649V44.2592H146.175V43.0067H154.042V44.2592H150.718V66.0649H149.582Z" fill="#1B1B1F"/>
<path d="M156.041 66.0649V43.0067H157.177V52.7424H159.092C160.143 52.7424 161.006 52.9986 161.679 53.511C162.352 54.0044 162.85 54.754 163.172 55.7599C163.495 56.7657 163.656 58.0277 163.656 59.546C163.656 60.4949 163.572 61.3679 163.404 62.1649C163.25 62.962 162.99 63.6547 162.626 64.243C162.275 64.8124 161.812 65.2583 161.237 65.581C160.662 65.9036 159.961 66.0649 159.134 66.0649H156.041ZM157.177 64.8124H159.176C160.003 64.8124 160.655 64.6131 161.132 64.2145C161.623 63.797 161.973 63.1992 162.184 62.4211C162.394 61.6241 162.499 60.6562 162.499 59.5175C162.499 57.7905 162.254 56.4431 161.763 55.4752C161.272 54.4883 160.403 53.9949 159.155 53.9949H157.177V64.8124Z" fill="#1B1B1F"/>
<path d="M165.548 66.0649V63.1043H166.789V66.0649H165.548Z" fill="#1B1B1F"/>
<path d="M172.052 69.8795V64.8693H172.662C172.943 64.6226 173.195 64.3759 173.42 64.1291C173.658 63.8635 173.868 63.4744 174.051 62.962C174.233 62.4496 174.401 61.7284 174.556 60.7985C174.724 59.8496 174.878 58.5781 175.018 56.9839C175.159 55.3708 175.299 53.3307 175.439 50.8635L175.881 43.0067H181.876V64.8693H183.117V69.8795H182.191L182.065 66.0649H173.104L172.978 69.8795H172.052ZM173.946 64.8693H180.719V44.2023H176.933L176.533 51.1482C176.393 53.6153 176.245 55.646 176.091 57.2401C175.951 58.8153 175.804 60.0679 175.649 60.9978C175.495 61.9277 175.327 62.6394 175.145 63.1328C174.976 63.6073 174.794 63.9678 174.598 64.2145C174.401 64.4423 174.184 64.6605 173.946 64.8693Z" fill="#1B1B1F"/>
<path d="M189.164 66.378C188.056 66.378 187.193 66.0839 186.576 65.4956C185.973 64.8883 185.553 64.0722 185.314 63.0474C185.076 62.0036 184.957 60.827 184.957 59.5175V49.4402C184.957 48.1307 185.083 46.973 185.335 45.9672C185.588 44.9614 186.015 44.1738 186.618 43.6045C187.235 43.0351 188.084 42.7504 189.164 42.7504C190.243 42.7504 191.085 43.0351 191.688 43.6045C192.305 44.1738 192.74 44.9614 192.992 45.9672C193.244 46.973 193.371 48.1307 193.371 49.4402V59.546C193.371 60.8554 193.251 62.0226 193.013 63.0474C192.775 64.0722 192.347 64.8883 191.73 65.4956C191.127 66.0839 190.271 66.378 189.164 66.378ZM189.164 65.097C189.977 65.097 190.601 64.8788 191.036 64.4423C191.484 64.0058 191.793 63.3985 191.961 62.6204C192.13 61.8233 192.214 60.9029 192.214 59.8591V49.2125C192.214 48.1687 192.13 47.2577 191.961 46.4796C191.793 45.7015 191.492 45.1037 191.057 44.6862C190.622 44.2497 189.991 44.0315 189.164 44.0315C188.35 44.0315 187.719 44.2497 187.27 44.6862C186.836 45.1037 186.534 45.7015 186.366 46.4796C186.198 47.2577 186.113 48.1687 186.113 49.2125V59.8591C186.113 60.9029 186.198 61.8233 186.366 62.6204C186.534 63.3985 186.836 64.0058 187.27 64.4423C187.719 64.8788 188.35 65.097 189.164 65.097Z" fill="#1B1B1F"/>
<path d="M198.411 66.0649V44.2592H195.003V43.0067H202.871V44.2592H199.547V66.0649H198.411Z" fill="#1B1B1F"/>
<path d="M204.87 66.0649V43.0067H208.867C209.891 43.0067 210.69 43.2723 211.265 43.8037C211.84 44.3161 212.24 45.0183 212.464 45.9103C212.702 46.8022 212.822 47.8176 212.822 48.9562C212.822 49.9811 212.702 50.9584 212.464 51.8883C212.24 52.8183 211.84 53.5774 211.265 54.1657C210.69 54.754 209.898 55.0482 208.888 55.0482H206.006V66.0649H204.87ZM206.006 53.8526H208.636C209.323 53.8526 209.884 53.6913 210.318 53.3686C210.767 53.046 211.097 52.5336 211.307 51.8314C211.531 51.1102 211.644 50.1519 211.644 48.9562C211.644 47.7227 211.546 46.7643 211.349 46.0811C211.153 45.3789 210.837 44.895 210.403 44.6293C209.968 44.3446 209.386 44.2023 208.657 44.2023H206.006V53.8526Z" fill="#1B1B1F"/>
<path d="M215.059 66.0649V43.0067H216.09V62.6489L221.916 43.0067H222.863V66.0649H221.832V46.4227L216.026 66.0649H215.059Z" fill="#1B1B1F"/>
<path d="M225.798 66.0649L226.303 43.0067H227.439L231.036 63.816L234.696 43.0067H235.874L236.358 66.0649H235.369L234.948 46.7358L231.477 66.0649H230.636L227.207 46.7643L226.787 66.0649H225.798Z" fill="#1B1B1F"/>
<path d="M239.005 68.7123L239.026 67.4883C239.713 67.5072 240.253 67.4503 240.645 67.3175C241.052 67.2036 241.354 66.9758 241.55 66.6342C241.746 66.3116 241.886 65.8561 241.971 65.2678C242.069 64.6605 242.153 63.8919 242.223 62.962L238.416 43.0067H239.551L241.487 53.6533L242.791 61.1401L243.927 53.5964L245.631 43.0067H246.788L243.401 63.1043C243.261 63.9963 243.127 64.7744 243.001 65.4386C242.875 66.0839 242.728 66.6153 242.56 67.0328C242.391 67.4693 242.167 67.8109 241.886 68.0576C241.606 68.3233 241.234 68.5036 240.772 68.5985C240.309 68.6934 239.72 68.7313 239.005 68.7123Z" fill="#1B1B1F"/>
<path d="M248.789 66.0649V43.0067H249.82V62.6489L255.647 43.0067H256.593V66.0649H255.562V46.4227L249.757 66.0649H248.789ZM252.723 41.2702C252.021 41.2702 251.454 41.014 251.019 40.5016C250.598 39.9892 250.374 39.1921 250.346 38.1103H251.124C251.138 38.9264 251.299 39.4957 251.608 39.8184C251.916 40.141 252.288 40.3023 252.723 40.3023C253.157 40.3023 253.529 40.141 253.838 39.8184C254.146 39.4957 254.321 38.9264 254.363 38.1103H255.142C255.114 39.1921 254.875 39.9892 254.427 40.5016C253.992 41.014 253.424 41.2702 252.723 41.2702Z" fill="#1B1B1F"/>
<path d="M261.989 66.0649V44.2592H258.582V43.0067H266.449V44.2592H263.125V66.0649H261.989Z" fill="#1B1B1F"/>
<path d="M268.427 66.0649V43.0067H274.317V44.2592H269.584V53.511H273.476V54.7066H269.584V64.8408H274.38V66.0649H268.427Z" fill="#1B1B1F"/>
<path d="M280.493 66.378C279.371 66.378 278.508 66.0649 277.905 65.4386C277.316 64.8124 276.91 63.9773 276.685 62.9335C276.461 61.8708 276.349 60.7036 276.349 59.4321V49.6395C276.349 48.311 276.468 47.1344 276.706 46.1096C276.945 45.0658 277.366 44.2497 277.969 43.6614C278.572 43.0541 279.413 42.7504 280.493 42.7504C281.488 42.7504 282.267 43.0161 282.828 43.5475C283.389 44.0789 283.788 44.838 284.027 45.8249C284.265 46.7928 284.384 47.9314 284.384 49.2409V50.4081H283.29V49.2409C283.29 48.1402 283.213 47.2103 283.059 46.4512C282.905 45.6731 282.624 45.0752 282.218 44.6577C281.811 44.2402 281.236 44.0315 280.493 44.0315C279.679 44.0315 279.055 44.2592 278.621 44.7147C278.186 45.1701 277.891 45.8059 277.737 46.622C277.583 47.438 277.506 48.3869 277.506 49.4687V59.6598C277.506 60.7985 277.59 61.7759 277.758 62.5919C277.926 63.389 278.228 64.0058 278.663 64.4423C279.097 64.8788 279.707 65.097 280.493 65.097C281.25 65.097 281.832 64.8788 282.239 64.4423C282.645 64.0058 282.919 63.3985 283.059 62.6204C283.213 61.8233 283.29 60.9029 283.29 59.8591V58.4642H284.384V59.6029C284.384 60.9124 284.272 62.0795 284.048 63.1043C283.823 64.1292 283.431 64.9357 282.87 65.524C282.309 66.0934 281.516 66.378 280.493 66.378Z" fill="#1B1B1F"/>
<path d="M285.904 66.0649L289.291 55.5606C288.435 55.1241 287.818 54.3365 287.44 53.1978C287.061 52.0402 286.872 50.7022 286.872 49.184C286.872 48.0833 286.998 47.0679 287.251 46.138C287.517 45.2081 287.966 44.4585 288.597 43.8891C289.228 43.3008 290.104 43.0067 291.226 43.0067H294.949V66.0649H293.771V56.0161H291.163C291.037 56.0161 290.89 56.0161 290.721 56.0161C290.567 55.9971 290.434 55.9781 290.322 55.9591L287.187 66.0649H285.904ZM291.31 54.8204H293.771V44.2307H291.268C290.23 44.2307 289.424 44.6103 288.849 45.3694C288.288 46.1285 288.008 47.4001 288.008 49.184C288.008 51.0438 288.26 52.4482 288.765 53.3971C289.27 54.346 290.118 54.8204 291.31 54.8204Z" fill="#1B1B1F"/>
<path d="M302.076 66.0649V43.0067H310.385V66.0649H309.249V44.2023H303.212V66.0649H302.076Z" fill="#1B1B1F"/>
<path d="M313.539 66.0649V43.0067H317.535C318.559 43.0067 319.358 43.2723 319.933 43.8037C320.508 44.3161 320.908 45.0183 321.132 45.9103C321.371 46.8022 321.49 47.8176 321.49 48.9562C321.49 49.9811 321.371 50.9584 321.132 51.8883C320.908 52.8183 320.508 53.5774 319.933 54.1657C319.358 54.754 318.566 55.0482 317.556 55.0482H314.675V66.0649H313.539ZM314.675 53.8526H317.304C317.991 53.8526 318.552 53.6913 318.987 53.3686C319.436 53.046 319.765 52.5336 319.975 51.8314C320.2 51.1102 320.312 50.1519 320.312 48.9562C320.312 47.7227 320.214 46.7643 320.017 46.0811C319.821 45.3789 319.506 44.895 319.071 44.6293C318.636 44.3446 318.054 44.2023 317.325 44.2023H314.675V53.8526Z" fill="#1B1B1F"/>
<path d="M322.474 66.0649L326.05 43.0067H327.375L330.972 66.0649H329.815L328.932 59.6883H324.514L323.61 66.0649H322.474ZM324.683 58.5496H328.784L326.723 44.8855L324.683 58.5496Z" fill="#1B1B1F"/>
<path d="M333.218 66.0649V43.0067H336.731C337.516 43.0067 338.161 43.1585 338.666 43.4621C339.185 43.7468 339.585 44.1548 339.865 44.6862C340.16 45.2176 340.363 45.8344 340.475 46.5366C340.601 47.2198 340.665 47.9599 340.665 48.757C340.665 49.3643 340.608 50.019 340.496 50.7212C340.398 51.4044 340.209 52.0117 339.928 52.5431C339.648 53.0745 339.227 53.4351 338.666 53.6248C339.325 53.8905 339.823 54.346 340.16 54.9912C340.51 55.6365 340.742 56.3577 340.854 57.1547C340.98 57.9328 341.043 58.6635 341.043 59.3467C341.043 60.2197 340.994 61.0547 340.896 61.8518C340.812 62.6489 340.637 63.37 340.37 64.0153C340.104 64.6416 339.718 65.1445 339.213 65.524C338.722 65.8846 338.063 66.0649 337.236 66.0649H333.218ZM334.354 64.8408H337.089C338.21 64.8408 338.961 64.3948 339.339 63.5029C339.732 62.6109 339.928 61.235 339.928 59.3752C339.928 58.4452 339.844 57.6007 339.676 56.8416C339.522 56.0825 339.248 55.4752 338.855 55.0197C338.477 54.5642 337.944 54.3365 337.257 54.3365H334.354V64.8408ZM334.354 53.1124H337.236C337.867 53.1124 338.351 52.9132 338.687 52.5146C339.024 52.1161 339.255 51.5942 339.381 50.9489C339.522 50.2847 339.592 49.5541 339.592 48.757C339.592 47.903 339.515 47.1344 339.36 46.4512C339.206 45.7679 338.905 45.2366 338.456 44.857C338.021 44.4585 337.355 44.2592 336.457 44.2592H334.354V53.1124Z" fill="#1B1B1F"/>
<path d="M343.468 66.0649V43.0067H344.499V62.6489L350.326 43.0067H351.272V66.0649H350.241V46.4227L344.436 66.0649H343.468Z" fill="#1B1B1F"/>
<path d="M353.366 66.1218V64.8978C353.815 64.8598 354.186 64.7839 354.481 64.67C354.775 64.5562 355.014 64.2905 355.196 63.8729C355.378 63.4554 355.533 62.7817 355.659 61.8518C355.785 60.9219 355.904 59.6314 356.016 57.9803C356.143 56.3292 356.283 54.2037 356.437 51.6037L356.9 43.0067H363V66.0649H361.843V44.2023H357.973L357.552 51.6037C357.398 54.2037 357.257 56.3766 357.131 58.1226C357.005 59.8496 356.858 61.2445 356.689 62.3073C356.535 63.37 356.325 64.1766 356.058 64.727C355.806 65.2583 355.462 65.6189 355.028 65.8087C354.593 65.9985 354.039 66.1029 353.366 66.1218Z" fill="#1B1B1F"/>
<path d="M55.6279 101.5C54.9968 101.424 54.478 101.139 54.0713 100.646C53.6646 100.172 53.3491 99.5263 53.1247 98.7102C52.9003 97.8942 52.732 96.9358 52.6198 95.8351C52.5217 94.7154 52.4586 93.4818 52.4305 92.1344C52.4165 90.7869 52.4095 89.3541 52.4095 87.8358C52.4095 86.2986 52.4165 84.8468 52.4305 83.4804C52.4586 82.114 52.5217 80.8709 52.6198 79.7512C52.732 78.6125 52.9003 77.6352 53.1247 76.8191C53.3491 75.9841 53.6646 75.3388 54.0713 74.8834C54.478 74.4089 54.9968 74.1527 55.6279 74.1148V75.225C55.095 75.3199 54.6813 75.7089 54.3868 76.3921C54.0923 77.0564 53.882 77.9578 53.7557 79.0965C53.6295 80.2162 53.5524 81.5257 53.5243 83.0249C53.5103 84.5052 53.5033 86.1088 53.5033 87.8358C53.5033 89.5628 53.5103 91.176 53.5243 92.6752C53.5524 94.1555 53.6295 95.4555 53.7557 96.5752C53.882 97.6949 54.0853 98.5869 54.3658 99.2511C54.6603 99.9343 55.081 100.323 55.6279 100.418V101.5Z" fill="#1B1B1F"/>
<path d="M57.8497 97.3153V74.2571H66.1586V97.3153H65.0227V75.4527H58.9856V97.3153H57.8497Z" fill="#1B1B1F"/>
<path d="M69.3123 97.3153V74.2571H73.309C74.3327 74.2571 75.132 74.5228 75.707 75.0542C76.2819 75.5666 76.6816 76.2688 76.906 77.1607C77.1444 78.0527 77.2636 79.068 77.2636 80.2067C77.2636 81.2315 77.1444 82.2089 76.906 83.1388C76.6816 84.0687 76.2819 84.8278 75.707 85.4162C75.132 86.0045 74.3397 86.2986 73.33 86.2986H70.4482V97.3153H69.3123ZM70.4482 85.103H73.0776C73.7647 85.103 74.3257 84.9417 74.7604 84.6191C75.2091 84.2965 75.5387 83.784 75.7491 83.0819C75.9734 82.3607 76.0856 81.4023 76.0856 80.2067C76.0856 78.9731 75.9874 78.0147 75.7911 77.3315C75.5948 76.6293 75.2793 76.1454 74.8445 75.8797C74.4098 75.595 73.8278 75.4527 73.0986 75.4527H70.4482V85.103Z" fill="#1B1B1F"/>
<path d="M79.5007 97.3153V74.2571H80.5314V93.8993L86.3582 74.2571H87.3048V97.3153H86.2741V77.6731L80.4683 97.3153H79.5007Z" fill="#1B1B1F"/>
<path d="M90.4292 97.3153V74.2571H91.5861V84.6475H97.5601V74.2571H98.696V97.3153H97.5601V85.8432H91.5861V97.3153H90.4292Z" fill="#1B1B1F"/>
<path d="M110.455 101.13L110.328 97.3153H101.83V74.2571H102.987V96.1197H109.045V74.2571H110.202V96.1197H111.38V101.13H110.455Z" fill="#1B1B1F"/>
<path d="M113.498 97.3153V74.2571H114.529V93.8993L120.356 74.2571H121.302V97.3153H120.271V77.6731L114.466 97.3153H113.498Z" fill="#1B1B1F"/>
<path d="M124.448 97.3153V74.2571H132.756V97.3153H131.621V75.4527H125.583V97.3153H124.448Z" fill="#1B1B1F"/>
<path d="M135.931 97.3153V74.2571H137.067V97.3153H135.931Z" fill="#1B1B1F"/>
<path d="M140.245 97.3153V74.2571H143.757C144.543 74.2571 145.188 74.4089 145.693 74.7126C146.212 74.9972 146.611 75.4053 146.892 75.9366C147.186 76.468 147.39 77.0848 147.502 77.787C147.628 78.4702 147.691 79.2104 147.691 80.0074C147.691 80.6147 147.635 81.2695 147.523 81.9716C147.425 82.6549 147.235 83.2622 146.955 83.7935C146.674 84.3249 146.254 84.6855 145.693 84.8753C146.352 85.141 146.85 85.5965 147.186 86.2417C147.537 86.8869 147.768 87.6081 147.88 88.4052C148.007 89.1833 148.07 89.9139 148.07 90.5971C148.07 91.4701 148.021 92.3052 147.922 93.1022C147.838 93.8993 147.663 94.6205 147.397 95.2657C147.13 95.892 146.744 96.3949 146.24 96.7745C145.749 97.1351 145.09 97.3153 144.262 97.3153H140.245ZM141.38 96.0913H144.115C145.237 96.0913 145.987 95.6453 146.366 94.7533C146.758 93.8614 146.955 92.4855 146.955 90.6256C146.955 89.6957 146.871 88.8512 146.702 88.092C146.548 87.3329 146.275 86.7256 145.882 86.2702C145.503 85.8147 144.97 85.587 144.283 85.587H141.38V96.0913ZM141.38 84.3629H144.262C144.893 84.3629 145.377 84.1636 145.714 83.7651C146.05 83.3665 146.282 82.8446 146.408 82.1994C146.548 81.5352 146.618 80.8045 146.618 80.0074C146.618 79.1534 146.541 78.3848 146.387 77.7016C146.233 77.0184 145.931 76.487 145.482 76.1075C145.048 75.7089 144.381 75.5096 143.484 75.5096H141.38V84.3629Z" fill="#1B1B1F"/>
<path d="M149.59 101.5V100.418C150.123 100.323 150.537 99.9343 150.831 99.2511C151.126 98.5869 151.336 97.6949 151.462 96.5752C151.588 95.4365 151.659 94.127 151.673 92.6468C151.701 91.1475 151.715 89.5344 151.715 87.8074C151.715 86.0804 151.701 84.4767 151.673 82.9965C151.659 81.4972 151.588 80.1877 151.462 79.068C151.336 77.9483 151.126 77.0564 150.831 76.3921C150.537 75.7089 150.123 75.3199 149.59 75.225V74.1148C150.221 74.1527 150.74 74.4089 151.147 74.8834C151.553 75.3388 151.869 75.9841 152.093 76.8191C152.332 77.6352 152.5 78.6031 152.598 79.7228C152.71 80.8425 152.773 82.0855 152.787 83.4519C152.815 84.8183 152.83 86.2702 152.83 87.8074C152.83 89.3256 152.815 90.7585 152.787 92.1059C152.773 93.4533 152.71 94.6869 152.598 95.8066C152.5 96.9263 152.332 97.8942 152.093 98.7102C151.869 99.5263 151.553 100.172 151.147 100.646C150.74 101.139 150.221 101.424 149.59 101.5Z" fill="#1B1B1F"/>
<path d="M159.862 97.3153V74.2571H163.375C164.161 74.2571 164.806 74.4089 165.31 74.7126C165.829 74.9972 166.229 75.4053 166.509 75.9366C166.804 76.468 167.007 77.0848 167.119 77.787C167.246 78.4702 167.309 79.2104 167.309 80.0074C167.309 80.6147 167.253 81.2695 167.141 81.9716C167.042 82.6549 166.853 83.2622 166.573 83.7935C166.292 84.3249 165.871 84.6855 165.31 84.8753C165.97 85.141 166.467 85.5965 166.804 86.2417C167.155 86.8869 167.386 87.6081 167.498 88.4052C167.624 89.1833 167.687 89.9139 167.687 90.5971C167.687 91.4701 167.638 92.3052 167.54 93.1022C167.456 93.8993 167.281 94.6205 167.014 95.2657C166.748 95.892 166.362 96.3949 165.857 96.7745C165.367 97.1351 164.707 97.3153 163.88 97.3153H159.862ZM160.998 96.0913H163.733C164.855 96.0913 165.605 95.6453 165.984 94.7533C166.376 93.8614 166.573 92.4855 166.573 90.6256C166.573 89.6957 166.488 88.8512 166.32 88.092C166.166 87.3329 165.892 86.7256 165.5 86.2702C165.121 85.8147 164.588 85.587 163.901 85.587H160.998V96.0913ZM160.998 84.3629H163.88C164.511 84.3629 164.995 84.1636 165.331 83.7651C165.668 83.3665 165.899 82.8446 166.026 82.1994C166.166 81.5352 166.236 80.8045 166.236 80.0074C166.236 79.1534 166.159 78.3848 166.005 77.7016C165.85 77.0184 165.549 76.487 165.1 76.1075C164.665 75.7089 163.999 75.5096 163.102 75.5096H160.998V84.3629Z" fill="#1B1B1F"/>
<path d="M170.154 97.3153V74.2571H171.29V97.3153H170.154Z" fill="#1B1B1F"/>
<path d="M173.08 101.13V96.1197H173.69C173.97 95.873 174.222 95.6263 174.447 95.3796C174.685 95.1139 174.896 94.7249 175.078 94.2124C175.26 93.7 175.428 92.9789 175.583 92.049C175.751 91.1001 175.905 89.8285 176.045 88.2344C176.186 86.6213 176.326 84.5811 176.466 82.114L176.908 74.2571H182.903V96.1197H184.144V101.13H183.219L183.092 97.3153H174.131L174.005 101.13H173.08ZM174.973 96.1197H181.746V75.4527H177.96L177.56 82.3987C177.42 84.8658 177.273 86.8964 177.118 88.4906C176.978 90.0658 176.831 91.3183 176.677 92.2482C176.522 93.1781 176.354 93.8898 176.172 94.3833C176.003 94.8577 175.821 95.2183 175.625 95.465C175.428 95.6927 175.211 95.911 174.973 96.1197Z" fill="#1B1B1F"/>
<path d="M186.341 97.3153V74.2571H194.65V97.3153H193.514V75.4527H187.477V97.3153H186.341Z" fill="#1B1B1F"/>
<path d="M201.653 97.6285C200.545 97.6285 199.683 97.3343 199.066 96.746C198.463 96.1387 198.042 95.3227 197.804 94.2979C197.565 93.2541 197.446 92.0774 197.446 90.7679V80.6906C197.446 79.3811 197.572 78.2235 197.825 77.2177C198.077 76.2118 198.505 75.4242 199.108 74.8549C199.725 74.2856 200.573 74.0009 201.653 74.0009C202.733 74.0009 203.574 74.2856 204.178 74.8549C204.795 75.4242 205.229 76.2118 205.482 77.2177C205.734 78.2235 205.86 79.3811 205.86 80.6906V90.7964C205.86 92.1059 205.741 93.273 205.503 94.2979C205.264 95.3227 204.837 96.1387 204.22 96.746C203.617 97.3343 202.761 97.6285 201.653 97.6285ZM201.653 96.3475C202.467 96.3475 203.091 96.1292 203.525 95.6927C203.974 95.2562 204.283 94.6489 204.451 93.8708C204.619 93.0738 204.703 92.1533 204.703 91.1096V80.4629C204.703 79.4191 204.619 78.5082 204.451 77.7301C204.283 76.952 203.981 76.3542 203.546 75.9366C203.112 75.5002 202.481 75.2819 201.653 75.2819C200.84 75.2819 200.209 75.5002 199.76 75.9366C199.325 76.3542 199.024 76.952 198.856 77.7301C198.687 78.5082 198.603 79.4191 198.603 80.4629V91.1096C198.603 92.1533 198.687 93.0738 198.856 93.8708C199.024 94.6489 199.325 95.2562 199.76 95.6927C200.209 96.1292 200.84 96.3475 201.653 96.3475Z" fill="#1B1B1F"/>
<path d="M208.65 97.3153V74.2571H212.163C212.948 74.2571 213.593 74.4089 214.098 74.7126C214.617 74.9972 215.017 75.4053 215.297 75.9366C215.592 76.468 215.795 77.0848 215.907 77.787C216.033 78.4702 216.097 79.2104 216.097 80.0074C216.097 80.6147 216.04 81.2695 215.928 81.9716C215.83 82.6549 215.641 83.2622 215.36 83.7935C215.08 84.3249 214.659 84.6855 214.098 84.8753C214.757 85.141 215.255 85.5965 215.592 86.2417C215.942 86.8869 216.174 87.6081 216.286 88.4052C216.412 89.1833 216.475 89.9139 216.475 90.5971C216.475 91.4701 216.426 92.3052 216.328 93.1022C216.244 93.8993 216.069 94.6205 215.802 95.2657C215.536 95.892 215.15 96.3949 214.645 96.7745C214.154 97.1351 213.495 97.3153 212.668 97.3153H208.65ZM209.786 96.0913H212.521C213.642 96.0913 214.393 95.6453 214.771 94.7533C215.164 93.8614 215.36 92.4855 215.36 90.6256C215.36 89.6957 215.276 88.8512 215.108 88.092C214.954 87.3329 214.68 86.7256 214.288 86.2702C213.909 85.8147 213.376 85.587 212.689 85.587H209.786V96.0913ZM209.786 84.3629H212.668C213.299 84.3629 213.783 84.1636 214.119 83.7651C214.456 83.3665 214.687 82.8446 214.813 82.1994C214.954 81.5352 215.024 80.8045 215.024 80.0074C215.024 79.1534 214.947 78.3848 214.792 77.7016C214.638 77.0184 214.337 76.487 213.888 76.1075C213.453 75.7089 212.787 75.5096 211.89 75.5096H209.786V84.3629Z" fill="#1B1B1F"/>
<path d="M218.942 97.3153V74.2571H220.078V97.3153H218.942Z" fill="#1B1B1F"/>
<path d="M221.867 101.13V96.1197H222.477C222.758 95.873 223.01 95.6263 223.235 95.3796C223.473 95.1139 223.683 94.7249 223.866 94.2124C224.048 93.7 224.216 92.9789 224.37 92.049C224.539 91.1001 224.693 89.8285 224.833 88.2344C224.973 86.6213 225.114 84.5811 225.254 82.114L225.696 74.2571H231.691V96.1197H232.932V101.13H232.006L231.88 97.3153H222.919L222.793 101.13H221.867ZM223.76 96.1197H230.534V75.4527H226.747L226.348 82.3987C226.208 84.8658 226.06 86.8964 225.906 88.4906C225.766 90.0658 225.619 91.3183 225.464 92.2482C225.31 93.1781 225.142 93.8898 224.959 94.3833C224.791 94.8577 224.609 95.2183 224.413 95.465C224.216 95.6927 223.999 95.911 223.76 96.1197Z" fill="#1B1B1F"/>
<path d="M234.225 97.3153L237.8 74.2571H239.126L242.723 97.3153H241.566L240.682 90.9388H236.265L235.36 97.3153H234.225ZM236.433 89.8001H240.535L238.474 76.1359L236.433 89.8001Z" fill="#1B1B1F"/>
<path d="M243.917 97.3723V96.1482C244.366 96.1103 244.737 96.0343 245.032 95.9205C245.326 95.8066 245.565 95.5409 245.747 95.1234C245.929 94.7059 246.084 94.0322 246.21 93.1022C246.336 92.1723 246.455 90.8818 246.567 89.2307C246.694 87.5796 246.834 85.4541 246.988 82.8541L247.451 74.2571H253.551V97.3153H252.394V75.4527H248.524L248.103 82.8541C247.949 85.4541 247.808 87.6271 247.682 89.3731C247.556 91.1001 247.409 92.4949 247.241 93.5577C247.086 94.6205 246.876 95.427 246.609 95.9774C246.357 96.5088 246.013 96.8694 245.579 97.0592C245.144 97.2489 244.59 97.3533 243.917 97.3723Z" fill="#1B1B1F"/>
<path d="M256.678 97.3153V74.2571H257.814V83.9928H259.728C260.78 83.9928 261.642 84.249 262.315 84.7614C262.988 85.2548 263.486 86.0045 263.809 87.0103C264.131 88.0161 264.293 89.2782 264.293 90.7964C264.293 91.7453 264.208 92.6183 264.04 93.4154C263.886 94.2124 263.626 94.9051 263.262 95.4935C262.911 96.0628 262.448 96.5088 261.873 96.8314C261.299 97.154 260.597 97.3153 259.77 97.3153H256.678ZM257.814 96.0628H259.812C260.639 96.0628 261.292 95.8635 261.768 95.465C262.259 95.0475 262.61 94.4497 262.82 93.6716C263.03 92.8745 263.136 91.9066 263.136 90.7679C263.136 89.0409 262.89 87.6935 262.399 86.7256C261.909 85.7388 261.039 85.2454 259.791 85.2454H257.814V96.0628Z" fill="#1B1B1F"/>
<path d="M266.353 97.3153V74.2571H267.51V84.6475H273.484V74.2571H274.62V97.3153H273.484V85.8432H267.51V97.3153H266.353Z" fill="#1B1B1F"/>
<path d="M281.624 97.6285C280.516 97.6285 279.654 97.3343 279.037 96.746C278.434 96.1387 278.013 95.3227 277.775 94.2979C277.536 93.2541 277.417 92.0774 277.417 90.7679V80.6906C277.417 79.3811 277.543 78.2235 277.796 77.2177C278.048 76.2118 278.476 75.4242 279.079 74.8549C279.696 74.2856 280.544 74.0009 281.624 74.0009C282.704 74.0009 283.545 74.2856 284.148 74.8549C284.765 75.4242 285.2 76.2118 285.453 77.2177C285.705 78.2235 285.831 79.3811 285.831 80.6906V90.7964C285.831 92.1059 285.712 93.273 285.474 94.2979C285.235 95.3227 284.807 96.1387 284.19 96.746C283.587 97.3343 282.732 97.6285 281.624 97.6285ZM281.624 96.3475C282.437 96.3475 283.061 96.1292 283.496 95.6927C283.945 95.2562 284.254 94.6489 284.422 93.8708C284.59 93.0738 284.674 92.1533 284.674 91.1096V80.4629C284.674 79.4191 284.59 78.5082 284.422 77.7301C284.254 76.952 283.952 76.3542 283.517 75.9366C283.083 75.5002 282.451 75.2819 281.624 75.2819C280.811 75.2819 280.18 75.5002 279.731 75.9366C279.296 76.3542 278.995 76.952 278.826 77.7301C278.658 78.5082 278.574 79.4191 278.574 80.4629V91.1096C278.574 92.1533 278.658 93.0738 278.826 93.8708C278.995 94.6489 279.296 95.2562 279.731 95.6927C280.18 96.1292 280.811 96.3475 281.624 96.3475Z" fill="#1B1B1F"/>
<path d="M288.642 97.3153V74.2571H289.778V97.3153H288.642ZM290.325 69.8163V67.6528H291.503V69.8163H290.325ZM286.959 69.8163V67.6528H288.116V69.8163H286.959Z" fill="#1B1B1F"/>
<path d="M296.941 97.3153V74.2571H302.725V75.5096H298.076V97.3153H296.941Z" fill="#1B1B1F"/>
<path d="M304.706 97.3153V74.2571H308.702C309.726 74.2571 310.525 74.5228 311.1 75.0542C311.675 75.5666 312.075 76.2688 312.299 77.1607C312.538 78.0527 312.657 79.068 312.657 80.2067C312.657 81.2315 312.538 82.2089 312.299 83.1388C312.075 84.0687 311.675 84.8278 311.1 85.4162C310.525 86.0045 309.733 86.2986 308.723 86.2986H305.841V97.3153H304.706ZM305.841 85.103H308.471C309.158 85.103 309.719 84.9417 310.154 84.6191C310.602 84.2965 310.932 83.784 311.142 83.0819C311.367 82.3607 311.479 81.4023 311.479 80.2067C311.479 78.9731 311.381 78.0147 311.184 77.3315C310.988 76.6293 310.672 76.1454 310.238 75.8797C309.803 75.595 309.221 75.4527 308.492 75.4527H305.841V85.103Z" fill="#1B1B1F"/>
<path d="M314.894 97.3153V74.2571H315.925V93.8993L321.751 74.2571H322.698V97.3153H321.667V77.6731L315.862 97.3153H314.894Z" fill="#1B1B1F"/>
</svg>
