<svg width="768" height="130" viewBox="0 0 768 130" fill="none" xmlns="http://www.w3.org/2000/svg">
<rect width="768" height="130" fill="white"/>
<path d="M82.9299 42.462L82.9665 40.8843C84.1647 40.9087 85.106 40.8354 85.7907 40.6641C86.4997 40.5174 87.0254 40.2238 87.3678 39.7836C87.7101 39.3677 87.9546 38.7807 88.1013 38.0224C88.2725 37.2397 88.4192 36.249 88.5414 35.0504L81.9029 9.33022H83.8835L87.2577 23.0526L89.5317 32.7022L91.5122 22.9792L94.4831 9.33022H96.5003L90.5953 35.2339C90.3508 36.3835 90.1185 37.3864 89.8985 38.2425C89.6784 39.0742 89.4217 39.7591 89.1282 40.2972C88.8348 40.8598 88.4436 41.3001 87.9546 41.6181C87.4656 41.9605 86.8176 42.1929 86.0107 42.3152C85.2038 42.4375 84.1769 42.4864 82.9299 42.462Z" fill="#1B1B1F"/>
<path d="M111.03 39.0497V25.254C109.489 25.6943 108.034 25.9144 106.665 25.9144C105.125 25.9144 103.792 25.7065 102.667 25.2907C101.567 24.8504 100.711 24.1655 100.1 23.236C99.4888 22.2821 99.1831 21.0346 99.1831 19.4936V9.33022H101.2V19.4936C101.2 20.8389 101.457 21.8662 101.971 22.5756C102.484 23.2849 103.169 23.7742 104.024 24.0432C104.905 24.3123 105.883 24.4468 106.959 24.4468C107.741 24.4468 108.475 24.3857 109.159 24.2634C109.868 24.1166 110.492 23.9454 111.03 23.7497V9.33022H113.047V39.0497H111.03Z" fill="#1B1B1F"/>
<path d="M116.967 39.0497L123.202 9.33022H125.513L131.785 39.0497H129.767L128.227 30.831H120.525L118.948 39.0497H116.967ZM120.818 29.3634H127.97L124.376 11.7518L120.818 29.3634Z" fill="#1B1B1F"/>
<path d="M142.302 39.4533C140.346 39.4533 138.843 39.0497 137.791 38.2425C136.764 37.4353 136.055 36.3591 135.664 35.0138C135.273 33.644 135.077 32.1396 135.077 30.5008V17.8792C135.077 16.1669 135.285 14.6504 135.701 13.3295C136.116 11.9842 136.85 10.9324 137.901 10.1741C138.953 9.39137 140.42 9 142.302 9C144.038 9 145.396 9.34245 146.374 10.0273C147.352 10.7122 148.048 11.6907 148.464 12.9626C148.88 14.2101 149.088 15.6777 149.088 17.3655V18.8698H147.18V17.3655C147.18 15.9468 147.046 14.7482 146.777 13.7698C146.508 12.7669 146.019 11.9964 145.31 11.4583C144.601 10.9202 143.598 10.6511 142.302 10.6511C140.884 10.6511 139.796 10.9446 139.038 11.5317C138.28 12.1187 137.767 12.9381 137.498 13.9899C137.229 15.0417 137.094 16.2648 137.094 17.659V30.7943C137.094 32.2619 137.241 33.5217 137.534 34.5735C137.828 35.6008 138.354 36.3958 139.112 36.9584C139.87 37.521 140.933 37.8023 142.302 37.8023C143.623 37.8023 144.638 37.521 145.347 36.9584C146.056 36.3958 146.533 35.613 146.777 34.6102C147.046 33.5828 147.18 32.3965 147.18 31.0512V29.2533H149.088V30.7209C149.088 32.4087 148.892 33.913 148.501 35.2339C148.11 36.5548 147.425 37.5943 146.447 38.3526C145.469 39.0864 144.087 39.4533 142.302 39.4533Z" fill="#1B1B1F"/>
<path d="M157.569 39.0497V10.9446H151.628V9.33022H165.345V10.9446H159.55V39.0497H157.569Z" fill="#1B1B1F"/>
<path d="M168.832 39.0497V9.33022H170.812V21.8785H174.15C175.984 21.8785 177.487 22.2087 178.661 22.8691C179.835 23.5051 180.703 24.4713 181.265 25.7677C181.827 27.0641 182.109 28.6907 182.109 30.6476C182.109 31.8706 181.962 32.9958 181.668 34.0231C181.399 35.0504 180.947 35.9433 180.311 36.7015C179.7 37.4353 178.893 38.0102 177.891 38.426C176.888 38.8418 175.666 39.0497 174.223 39.0497H168.832ZM170.812 37.4353H174.296C175.739 37.4353 176.876 37.1785 177.707 36.6648C178.563 36.1267 179.174 35.3562 179.541 34.3533C179.908 33.326 180.091 32.0785 180.091 30.6109C180.091 28.385 179.663 26.6483 178.808 25.4008C177.952 24.1288 176.436 23.4929 174.26 23.4929H170.812V37.4353Z" fill="#1B1B1F"/>
<path d="M192.686 39.0497V9.33022H198.811C200.18 9.33022 201.305 9.5259 202.185 9.91727C203.09 10.2842 203.787 10.8101 204.276 11.495C204.789 12.1799 205.144 12.9748 205.339 13.8799C205.559 14.7605 205.669 15.7144 205.669 16.7418C205.669 17.5245 205.572 18.3684 205.376 19.2734C205.205 20.154 204.875 20.9367 204.386 21.6216C203.897 22.3065 203.163 22.7713 202.185 23.0159C203.334 23.3583 204.202 23.9454 204.789 24.777C205.4 25.6087 205.804 26.5382 205.999 27.5655C206.22 28.5684 206.33 29.5101 206.33 30.3907C206.33 31.5159 206.244 32.5922 206.073 33.6195C205.926 34.6468 205.62 35.5763 205.156 36.408C204.691 37.2152 204.019 37.8634 203.139 38.3526C202.283 38.8174 201.134 39.0497 199.691 39.0497H192.686ZM194.666 37.472H199.434C201.39 37.472 202.699 36.8972 203.359 35.7476C204.043 34.5979 204.386 32.8245 204.386 30.4274C204.386 29.2288 204.239 28.1404 203.946 27.1619C203.677 26.1835 203.2 25.4008 202.515 24.8137C201.855 24.2267 200.926 23.9331 199.728 23.9331H194.666V37.472ZM194.666 22.3554H199.691C200.791 22.3554 201.635 22.0986 202.222 21.5849C202.809 21.0713 203.212 20.3986 203.432 19.5669C203.677 18.7108 203.799 17.7691 203.799 16.7418C203.799 15.641 203.664 14.6504 203.395 13.7698C203.126 12.8892 202.601 12.2043 201.818 11.7151C201.06 11.2014 199.899 10.9446 198.334 10.9446H194.666V22.3554Z" fill="#1B1B1F"/>
<path d="M215.966 39.0497L222.201 9.33022H224.511L230.783 39.0497H228.766L227.226 30.831H219.523L217.946 39.0497H215.966ZM219.817 29.3634H226.969L223.375 11.7518L219.817 29.3634Z" fill="#1B1B1F"/>
<path d="M240.678 39.4533C239.186 39.4533 237.976 39.1598 237.047 38.5728C236.142 37.9857 235.482 37.1785 235.066 36.1512C234.65 35.0994 234.443 33.8641 234.443 32.4454V31.895H236.276C236.276 31.944 236.276 32.0663 236.276 32.2619C236.276 32.4332 236.276 32.5432 236.276 32.5922C236.301 34.3044 236.655 35.613 237.34 36.5181C238.025 37.4231 239.137 37.8756 240.678 37.8756C241.607 37.8756 242.438 37.6922 243.172 37.3253C243.905 36.9339 244.48 36.249 244.895 35.2706C245.336 34.2922 245.556 32.9224 245.556 31.1612C245.556 29.2044 245.164 27.59 244.382 26.318C243.6 25.0461 242.267 24.3857 240.384 24.3367C240.36 24.3367 240.201 24.3367 239.907 24.3367C239.614 24.3367 239.321 24.3367 239.027 24.3367C238.734 24.3367 238.563 24.3367 238.514 24.3367V22.8691C238.563 22.8691 238.734 22.8691 239.027 22.8691C239.321 22.8691 239.614 22.8691 239.907 22.8691C240.201 22.8691 240.348 22.8691 240.348 22.8691C242.255 22.8202 243.6 22.2698 244.382 21.218C245.164 20.1418 245.556 18.5029 245.556 16.3015C245.556 14.6381 245.201 13.2684 244.492 12.1921C243.807 11.1158 242.634 10.5777 240.971 10.5777C239.406 10.5777 238.196 10.9691 237.34 11.7518C236.509 12.5345 236.081 13.9043 236.056 15.8612C236.056 15.9101 236.056 16.0079 236.056 16.1547C236.056 16.277 236.056 16.3626 236.056 16.4115H234.223V15.9346C234.223 14.5403 234.43 13.3295 234.846 12.3022C235.286 11.2504 235.995 10.4432 236.973 9.88058C237.951 9.29353 239.259 9 240.898 9C242.414 9 243.661 9.33022 244.639 9.99065C245.617 10.6266 246.338 11.495 246.803 12.5957C247.292 13.6964 247.536 14.9439 247.536 16.3382C247.536 18.5641 247.121 20.2763 246.289 21.4749C245.458 22.649 244.443 23.3583 243.245 23.6029C243.881 23.7497 244.529 24.0921 245.189 24.6303C245.849 25.1439 246.399 25.9267 246.839 26.9785C247.304 28.0303 247.536 29.4123 247.536 31.1245C247.536 32.7389 247.304 34.1821 246.839 35.454C246.399 36.7015 245.678 37.68 244.675 38.3893C243.673 39.0987 242.34 39.4533 240.678 39.4533Z" fill="#1B1B1F"/>
<path d="M249.992 39.0497L256.227 9.33022H258.538L264.81 39.0497H262.792L261.252 30.831H253.55L251.973 39.0497H249.992ZM253.843 29.3634H260.995L257.401 11.7518L253.843 29.3634Z" fill="#1B1B1F"/>
<path d="M268.726 39.0497V9.33022H275.694C277.479 9.33022 278.873 9.67266 279.875 10.3576C280.878 11.018 281.575 11.923 281.966 13.0727C282.382 14.2223 282.589 15.531 282.589 16.9986C282.589 18.3195 282.382 19.5792 281.966 20.7777C281.575 21.9763 280.878 22.9547 279.875 23.713C278.873 24.4713 277.491 24.8504 275.731 24.8504H270.706V39.0497H268.726ZM270.706 23.3094H275.291C276.489 23.3094 277.467 23.1015 278.225 22.6857C279.007 22.2698 279.582 21.6094 279.949 20.7044C280.34 19.7749 280.536 18.5396 280.536 16.9986C280.536 15.4087 280.364 14.1734 280.022 13.2928C279.68 12.3878 279.13 11.764 278.372 11.4216C277.614 11.0547 276.599 10.8712 275.327 10.8712H270.706V23.3094Z" fill="#1B1B1F"/>
<path d="M290.451 39.0497V10.9446H284.51V9.33022H298.227V10.9446H292.432V39.0497H290.451Z" fill="#1B1B1F"/>
<path d="M301.677 39.0497V9.33022H303.694V22.7223H314.11V9.33022H316.091V39.0497H314.11V24.2634H303.694V39.0497H301.677Z" fill="#1B1B1F"/>
<path d="M321.555 39.0497V9.33022H323.352V34.6468L333.512 9.33022H335.162V39.0497H333.365V13.7331L323.242 39.0497H321.555Z" fill="#1B1B1F"/>
<path d="M338.446 39.0497L344.974 23.6396L338.483 9.33022H340.316L346.148 22.0252L351.833 9.33022H353.814L347.028 23.9331L353.96 39.0497H352.016L345.891 25.6943L340.427 39.0497H338.446Z" fill="#1B1B1F"/>
<path d="M364.215 39.0497V9.33022H366.196V39.0497H364.215Z" fill="#1B1B1F"/>
<path d="M371.736 39.0497V9.33022H381.822V10.9446H373.716V39.0497H371.736Z" fill="#1B1B1F"/>
<path d="M385.275 39.0497V9.33022H392.243C394.028 9.33022 395.422 9.67266 396.425 10.3576C397.427 11.018 398.124 11.923 398.515 13.0727C398.931 14.2223 399.139 15.531 399.139 16.9986C399.139 18.3195 398.931 19.5792 398.515 20.7777C398.124 21.9763 397.427 22.9547 396.425 23.713C395.422 24.4713 394.041 24.8504 392.28 24.8504H387.255V39.0497H385.275ZM387.255 23.3094H391.84C393.038 23.3094 394.016 23.1015 394.774 22.6857C395.557 22.2698 396.131 21.6094 396.498 20.7044C396.889 19.7749 397.085 18.5396 397.085 16.9986C397.085 15.4087 396.914 14.1734 396.571 13.2928C396.229 12.3878 395.679 11.764 394.921 11.4216C394.163 11.0547 393.148 10.8712 391.877 10.8712H387.255V23.3094Z" fill="#1B1B1F"/>
<path d="M400.854 39.0497L407.089 9.33022H409.4L415.672 39.0497H413.654L412.114 30.831H404.412L402.835 39.0497H400.854ZM404.705 29.3634H411.857L408.263 11.7518L404.705 29.3634Z" fill="#1B1B1F"/>
<path d="M417.387 39.0497L423.916 23.6396L417.424 9.33022H419.258L425.089 22.0252L430.774 9.33022H432.755L425.969 23.9331L432.901 39.0497H430.957L424.832 25.6943L419.368 39.0497H417.387Z" fill="#1B1B1F"/>
<path d="M442.753 39.0497L443.633 9.33022H445.614L451.885 36.1512L458.267 9.33022H460.321L461.165 39.0497H459.441L458.707 14.1367L452.656 39.0497H451.188L445.21 14.1734L444.477 39.0497H442.753Z" fill="#1B1B1F"/>
<path d="M473.005 39.4533C471.073 39.4533 469.57 39.0742 468.494 38.3159C467.443 37.5332 466.709 36.4814 466.293 35.1605C465.878 33.8152 465.67 32.2986 465.67 30.6109V17.6223C465.67 15.9346 465.89 14.4425 466.33 13.1461C466.77 11.8497 467.516 10.8345 468.567 10.1007C469.643 9.36691 471.122 9 473.005 9C474.888 9 476.355 9.36691 477.406 10.1007C478.482 10.8345 479.24 11.8497 479.68 13.1461C480.12 14.4425 480.34 15.9346 480.34 17.6223V30.6476C480.34 32.3353 480.133 33.8397 479.717 35.1605C479.301 36.4814 478.556 37.5332 477.48 38.3159C476.428 39.0742 474.937 39.4533 473.005 39.4533ZM473.005 37.8023C474.423 37.8023 475.511 37.521 476.269 36.9584C477.052 36.3958 477.59 35.613 477.883 34.6102C478.177 33.5828 478.323 32.3965 478.323 31.0512V17.3288C478.323 15.9835 478.177 14.8094 477.883 13.8065C477.59 12.8036 477.064 12.0331 476.306 11.495C475.548 10.9324 474.448 10.6511 473.005 10.6511C471.587 10.6511 470.487 10.9324 469.704 11.495C468.946 12.0331 468.421 12.8036 468.127 13.8065C467.834 14.8094 467.687 15.9835 467.687 17.3288V31.0512C467.687 32.3965 467.834 33.5828 468.127 34.6102C468.421 35.613 468.946 36.3958 469.704 36.9584C470.487 37.521 471.587 37.8023 473.005 37.8023Z" fill="#1B1B1F"/>
<path d="M483.224 39.0497L490.853 23.5295L483.921 9.33022H485.865L492.54 23.4195H492.797V9.33022H494.631V23.4195H494.887L501.563 9.33022H503.506L496.575 23.5295L504.203 39.0497H502.223L494.997 23.9331H494.631V39.0497H492.797V23.9331H492.393L485.205 39.0497H483.224Z" fill="#1B1B1F"/>
<path d="M507.697 39.0497V9.33022H517.967V10.9446H509.714V22.8691H516.5V24.4101H509.714V37.472H518.077V39.0497H507.697Z" fill="#1B1B1F"/>
<path d="M529.081 39.0497V9.33022H535.206C536.575 9.33022 537.7 9.5259 538.58 9.91727C539.485 10.2842 540.182 10.8101 540.671 11.495C541.184 12.1799 541.539 12.9748 541.734 13.8799C541.954 14.7605 542.064 15.7144 542.064 16.7418C542.064 17.5245 541.967 18.3684 541.771 19.2734C541.6 20.154 541.27 20.9367 540.781 21.6216C540.292 22.3065 539.558 22.7713 538.58 23.0159C539.729 23.3583 540.597 23.9454 541.184 24.777C541.795 25.6087 542.199 26.5382 542.394 27.5655C542.615 28.5684 542.725 29.5101 542.725 30.3907C542.725 31.5159 542.639 32.5922 542.468 33.6195C542.321 34.6468 542.016 35.5763 541.551 36.408C541.086 37.2152 540.414 37.8634 539.534 38.3526C538.678 38.8174 537.529 39.0497 536.086 39.0497H529.081ZM531.061 37.472H535.829C537.785 37.472 539.094 36.8972 539.754 35.7476C540.438 34.5979 540.781 32.8245 540.781 30.4274C540.781 29.2288 540.634 28.1404 540.341 27.1619C540.072 26.1835 539.595 25.4008 538.91 24.8137C538.25 24.2267 537.321 23.9331 536.123 23.9331H531.061V37.472ZM531.061 22.3554H536.086C537.186 22.3554 538.03 22.0986 538.617 21.5849C539.204 21.0713 539.607 20.3986 539.827 19.5669C540.072 18.7108 540.194 17.7691 540.194 16.7418C540.194 15.641 540.059 14.6504 539.79 13.7698C539.521 12.8892 538.996 12.2043 538.213 11.7151C537.455 11.2014 536.294 10.9446 534.729 10.9446H531.061V22.3554Z" fill="#1B1B1F"/>
<path d="M546.953 39.0497V9.33022H548.75V34.6468L558.909 9.33022H560.56V39.0497H558.763V13.7331L548.64 39.0497H546.953Z" fill="#1B1B1F"/>
<path d="M566.007 39.0497V9.33022H568.025V23.2727H570.482L577.011 9.33022H579.064L572.243 23.7497L580.165 39.0497H578.147L570.482 24.4468H568.025V39.0497H566.007Z" fill="#1B1B1F"/>
<path d="M581.403 39.1231V37.5454C582.185 37.4965 582.833 37.3987 583.346 37.2519C583.86 37.1051 584.276 36.7627 584.593 36.2246C584.911 35.6864 585.18 34.8181 585.4 33.6195C585.62 32.4209 585.828 30.7576 586.024 28.6296C586.244 26.5015 586.488 23.7619 586.757 20.4108L587.564 9.33022H598.201V39.0497H596.183V10.8712H589.435L588.701 20.4108C588.432 23.7619 588.188 26.5626 587.968 28.813C587.748 31.0389 587.491 32.8368 587.198 34.2066C586.929 35.5763 586.562 36.6159 586.097 37.3253C585.657 38.0102 585.058 38.4749 584.3 38.7195C583.542 38.9641 582.576 39.0987 581.403 39.1231Z" fill="#1B1B1F"/>
<path d="M603.615 39.0497V9.33022H605.413V34.6468L615.572 9.33022H617.223V39.0497H615.425V13.7331L605.303 39.0497H603.615Z" fill="#1B1B1F"/>
<path d="M622.67 39.0497V9.33022H624.688V23.2727H627.145L633.673 9.33022H635.727L628.905 23.7497L636.828 39.0497H634.81L627.145 24.4468H624.688V39.0497H622.67Z" fill="#1B1B1F"/>
<path d="M638.322 39.0497L644.557 9.33022H646.868L653.14 39.0497H651.122L649.582 30.831H641.88L640.303 39.0497H638.322ZM642.173 29.3634H649.325L645.731 11.7518L642.173 29.3634Z" fill="#1B1B1F"/>
<path d="M659.655 39.0497V10.9446H653.713V9.33022H667.43V10.9446H661.635V39.0497H659.655Z" fill="#1B1B1F"/>
<path d="M670.88 39.0497V9.33022H672.677V34.6468L682.837 9.33022H684.487V39.0497H682.69V13.7331L672.567 39.0497H670.88Z" fill="#1B1B1F"/>
<path d="M78 79.3281V49.6086H79.9805V79.3281H78Z" fill="#1B1B1F"/>
<path d="M85.5208 79.3281V49.6086H95.6069V51.223H87.5013V79.3281H85.5208Z" fill="#1B1B1F"/>
<path d="M99.0597 79.3281V49.6086H106.028C107.813 49.6086 109.207 49.951 110.209 50.6359C111.212 51.2963 111.909 52.2014 112.3 53.351C112.716 54.5007 112.923 55.8093 112.923 57.2769C112.923 58.5978 112.716 59.8575 112.3 61.0561C111.909 62.2547 111.212 63.2331 110.209 63.9914C109.207 64.7496 107.825 65.1288 106.065 65.1288H101.04V79.3281H99.0597ZM101.04 63.5878H105.625C106.823 63.5878 107.801 63.3798 108.559 62.964C109.341 62.5482 109.916 61.8878 110.283 60.9827C110.674 60.0532 110.87 58.818 110.87 57.2769C110.87 55.687 110.698 54.4518 110.356 53.5712C110.014 52.6661 109.464 52.0424 108.706 51.6999C107.948 51.333 106.933 51.1496 105.661 51.1496H101.04V63.5878Z" fill="#1B1B1F"/>
<path d="M123.573 79.7317C121.641 79.7317 120.137 79.3526 119.061 78.5943C118.01 77.8115 117.276 76.7597 116.861 75.4389C116.445 74.0935 116.237 72.577 116.237 70.8892V57.9007C116.237 56.2129 116.457 54.7208 116.897 53.4244C117.338 52.128 118.083 51.1129 119.135 50.3791C120.211 49.6453 121.69 49.2784 123.573 49.2784C125.455 49.2784 126.922 49.6453 127.974 50.3791C129.05 51.1129 129.808 52.128 130.248 53.4244C130.688 54.7208 130.908 56.2129 130.908 57.9007V70.9259C130.908 72.6137 130.7 74.118 130.285 75.4389C129.869 76.7597 129.123 77.8115 128.047 78.5943C126.996 79.3526 125.504 79.7317 123.573 79.7317ZM123.573 78.0806C124.991 78.0806 126.079 77.7993 126.837 77.2367C127.619 76.6741 128.157 75.8914 128.451 74.8885C128.744 73.8612 128.891 72.6748 128.891 71.3295V57.6072C128.891 56.2618 128.744 55.0877 128.451 54.0848C128.157 53.082 127.632 52.3115 126.874 51.7733C126.116 51.2107 125.015 50.9294 123.573 50.9294C122.154 50.9294 121.054 51.2107 120.272 51.7733C119.514 52.3115 118.988 53.082 118.695 54.0848C118.401 55.0877 118.255 56.2618 118.255 57.6072V71.3295C118.255 72.6748 118.401 73.8612 118.695 74.8885C118.988 75.8914 119.514 76.6741 120.272 77.2367C121.054 77.7993 122.154 78.0806 123.573 78.0806Z" fill="#1B1B1F"/>
<path d="M135.772 79.3281V49.6086H141.897C143.267 49.6086 144.391 49.8043 145.272 50.1956C146.176 50.5625 146.873 51.0884 147.362 51.7733C147.876 52.4582 148.23 53.2532 148.426 54.1582C148.646 55.0388 148.756 55.9928 148.756 57.0201C148.756 57.8028 148.658 58.6467 148.462 59.5518C148.291 60.4324 147.961 61.2151 147.472 61.9C146.983 62.5849 146.25 63.0496 145.272 63.2942C146.421 63.6367 147.289 64.2237 147.876 65.0554C148.487 65.887 148.89 66.8165 149.086 67.8439C149.306 68.8468 149.416 69.7885 149.416 70.6691C149.416 71.7943 149.33 72.8705 149.159 73.8979C149.013 74.9252 148.707 75.8547 148.242 76.6864C147.778 77.4936 147.105 78.1418 146.225 78.631C145.369 79.0957 144.22 79.3281 142.778 79.3281H135.772ZM137.753 77.7504H142.521C144.477 77.7504 145.785 77.1756 146.445 76.0259C147.13 74.8763 147.472 73.1029 147.472 70.7058C147.472 69.5072 147.325 68.4187 147.032 67.4403C146.763 66.4619 146.286 65.6791 145.602 65.0921C144.941 64.505 144.012 64.2115 142.814 64.2115H137.753V77.7504ZM137.753 62.6338H142.778C143.878 62.6338 144.721 62.377 145.308 61.8633C145.895 61.3496 146.299 60.677 146.519 59.8453C146.763 58.9892 146.885 58.0475 146.885 57.0201C146.885 55.9194 146.751 54.9287 146.482 54.0482C146.213 53.1676 145.687 52.4827 144.905 51.9935C144.147 51.4798 142.985 51.223 141.42 51.223H137.753V62.6338Z" fill="#1B1B1F"/>
<path d="M153.167 82.7403L153.204 81.1626C154.402 81.1871 155.344 81.1137 156.028 80.9425C156.737 80.7957 157.263 80.5022 157.605 80.0619C157.948 79.6461 158.192 79.059 158.339 78.3008C158.51 77.518 158.657 76.5274 158.779 75.3288L152.14 49.6086H154.121L157.495 63.3309L159.769 72.9806L161.75 63.2575L164.721 49.6086H166.738L160.833 75.5123C160.588 76.6619 160.356 77.6648 160.136 78.5209C159.916 79.3526 159.659 80.0375 159.366 80.5756C159.072 81.1382 158.681 81.5785 158.192 81.8965C157.703 82.2389 157.055 82.4713 156.248 82.5936C155.441 82.7159 154.414 82.7648 153.167 82.7403Z" fill="#1B1B1F"/>
<path d="M183.191 79.7317C181.7 79.7317 180.489 79.4382 179.56 78.8511C178.655 78.2641 177.995 77.4569 177.58 76.4295C177.164 75.3777 176.956 74.1425 176.956 72.7238V72.1734H178.79C178.79 72.2223 178.79 72.3446 178.79 72.5403C178.79 72.7115 178.79 72.8216 178.79 72.8705C178.814 74.5828 179.169 75.8914 179.853 76.7964C180.538 77.7015 181.651 78.154 183.191 78.154C184.12 78.154 184.952 77.9705 185.685 77.6036C186.419 77.2123 186.993 76.5274 187.409 75.549C187.849 74.5705 188.069 73.2007 188.069 71.4396C188.069 69.4827 187.678 67.8684 186.895 66.5964C186.113 65.3245 184.78 64.664 182.898 64.6151C182.873 64.6151 182.714 64.6151 182.421 64.6151C182.127 64.6151 181.834 64.6151 181.541 64.6151C181.247 64.6151 181.076 64.6151 181.027 64.6151V63.1475C181.076 63.1475 181.247 63.1475 181.541 63.1475C181.834 63.1475 182.127 63.1475 182.421 63.1475C182.714 63.1475 182.861 63.1475 182.861 63.1475C184.768 63.0985 186.113 62.5482 186.895 61.4964C187.678 60.4201 188.069 58.7813 188.069 56.5798C188.069 54.9165 187.715 53.5467 187.005 52.4705C186.321 51.3942 185.147 50.8561 183.484 50.8561C181.92 50.8561 180.709 51.2474 179.853 52.0302C179.022 52.8129 178.594 54.1827 178.57 56.1395C178.57 56.1884 178.57 56.2863 178.57 56.4331C178.57 56.5554 178.57 56.641 178.57 56.6899H176.736V56.2129C176.736 54.8187 176.944 53.6079 177.359 52.5805C177.8 51.5287 178.509 50.7215 179.487 50.1589C180.465 49.5719 181.773 49.2784 183.411 49.2784C184.927 49.2784 186.174 49.6086 187.152 50.269C188.13 50.905 188.852 51.7733 189.316 52.8741C189.805 53.9748 190.05 55.2223 190.05 56.6165C190.05 58.8424 189.634 60.5547 188.803 61.7532C187.971 62.9273 186.957 63.6367 185.758 63.8813C186.394 64.028 187.042 64.3705 187.702 64.9086C188.362 65.4223 188.913 66.205 189.353 67.2568C189.817 68.3086 190.05 69.6907 190.05 71.4029C190.05 73.0173 189.817 74.4605 189.353 75.7324C188.913 76.9799 188.191 77.9583 187.189 78.6677C186.186 79.377 184.854 79.7317 183.191 79.7317Z" fill="#1B1B1F"/>
<path d="M192.506 79.3281L198.741 49.6086H201.051L207.323 79.3281H205.306L203.765 71.1094H196.063L194.486 79.3281H192.506ZM196.357 69.6417H203.509L199.914 52.0302L196.357 69.6417Z" fill="#1B1B1F"/>
<path d="M209.405 79.4015V77.8238C210.188 77.7749 210.836 77.677 211.349 77.5303C211.863 77.3835 212.278 77.041 212.596 76.5029C212.914 75.9648 213.183 75.0964 213.403 73.8979C213.623 72.6993 213.831 71.036 214.027 68.9079C214.247 66.7799 214.491 64.0403 214.76 60.6892L215.567 49.6086H226.203V79.3281H224.186V51.1496H217.437L216.704 60.6892C216.435 64.0403 216.19 66.841 215.97 69.0914C215.75 71.3173 215.494 73.1151 215.2 74.4849C214.931 75.8547 214.564 76.8943 214.1 77.6036C213.66 78.2885 213.061 78.7533 212.303 78.9979C211.545 79.2425 210.579 79.377 209.405 79.4015Z" fill="#1B1B1F"/>
<path d="M231.618 79.3281V49.6086H241.888V51.223H233.635V63.1475H240.421V64.6885H233.635V77.7504H241.998V79.3281H231.618Z" fill="#1B1B1F"/>
<path d="M244.073 79.3281L251.702 63.8079L244.77 49.6086H246.714L253.389 63.6978H253.645V49.6086H255.479V63.6978H255.736L262.411 49.6086H264.355L257.423 63.8079L265.052 79.3281H263.071L255.846 64.2115H255.479V79.3281H253.645V64.2115H253.242L246.053 79.3281H244.073Z" fill="#1B1B1F"/>
<path d="M268.546 79.3281V49.6086H270.563V63.0007H280.979V49.6086H282.96V79.3281H280.979V64.5417H270.563V79.3281H268.546Z" fill="#1B1B1F"/>
<path d="M288.498 79.3281V49.6086H290.478V79.3281H288.498Z" fill="#1B1B1F"/>
<path d="M302.62 79.7317C300.664 79.7317 299.16 79.3281 298.109 78.5209C297.082 77.7137 296.373 76.6374 295.982 75.2921C295.59 73.9223 295.395 72.418 295.395 70.7791V58.1575C295.395 56.4453 295.603 54.9287 296.018 53.6079C296.434 52.2625 297.168 51.2107 298.219 50.4525C299.27 49.6697 300.737 49.2784 302.62 49.2784C304.356 49.2784 305.713 49.6208 306.691 50.3057C307.669 50.9906 308.366 51.969 308.782 53.241C309.198 54.4884 309.405 55.9561 309.405 57.6439V59.1482H307.498V57.6439C307.498 56.2251 307.364 55.0266 307.095 54.0482C306.826 53.0453 306.337 52.2748 305.628 51.7366C304.919 51.1985 303.916 50.9294 302.62 50.9294C301.202 50.9294 300.114 51.223 299.356 51.81C298.598 52.3971 298.085 53.2165 297.816 54.2683C297.547 55.3201 297.412 56.5431 297.412 57.9374V71.0727C297.412 72.5403 297.559 73.8 297.852 74.8518C298.146 75.8792 298.671 76.6741 299.429 77.2367C300.187 77.7993 301.251 78.0806 302.62 78.0806C303.941 78.0806 304.955 77.7993 305.664 77.2367C306.373 76.6741 306.85 75.8914 307.095 74.8885C307.364 73.8612 307.498 72.6748 307.498 71.3295V69.5317H309.405V70.9993C309.405 72.6871 309.21 74.1914 308.819 75.5123C308.427 76.8331 307.743 77.8727 306.765 78.631C305.787 79.3648 304.405 79.7317 302.62 79.7317Z" fill="#1B1B1F"/>
<path d="M317.887 79.3281V51.223H311.946V49.6086H325.663V51.223H319.868V79.3281H317.887Z" fill="#1B1B1F"/>
<path d="M329.149 79.3281V49.6086H331.13V62.1568H334.467C336.301 62.1568 337.805 62.487 338.979 63.1475C340.152 63.7834 341.02 64.7496 341.583 66.046C342.145 67.3424 342.426 68.9691 342.426 70.9259C342.426 72.1489 342.28 73.2741 341.986 74.3015C341.717 75.3288 341.265 76.2216 340.629 76.9799C340.018 77.7137 339.211 78.2885 338.208 78.7044C337.206 79.1202 335.983 79.3281 334.541 79.3281H329.149ZM331.13 77.7137H334.614C336.057 77.7137 337.194 77.4569 338.025 76.9432C338.881 76.4051 339.492 75.6346 339.859 74.6317C340.226 73.6043 340.409 72.3568 340.409 70.8892C340.409 68.6633 339.981 66.9266 339.125 65.6791C338.27 64.4072 336.754 63.7712 334.577 63.7712H331.13V77.7137Z" fill="#1B1B1F"/>
<path d="M345.725 79.3281V75.5123H347.889V79.3281H345.725Z" fill="#1B1B1F"/>
<path d="M357.066 84.2447V77.7871H358.129C358.618 77.4691 359.059 77.1511 359.45 76.8331C359.865 76.4907 360.232 75.9892 360.55 75.3288C360.868 74.6684 361.161 73.7389 361.43 72.5403C361.724 71.3173 361.993 69.6784 362.237 67.6237C362.482 65.5446 362.726 62.9151 362.971 59.7352L363.741 49.6086H374.194V77.7871H376.358V84.2447H374.744L374.524 79.3281H358.9L358.68 84.2447H357.066ZM360.367 77.7871H372.177V51.1496H365.575L364.878 60.1021C364.633 63.282 364.377 65.8993 364.108 67.954C363.863 69.9842 363.606 71.5986 363.337 72.7971C363.069 73.9957 362.775 74.913 362.457 75.549C362.164 76.1605 361.846 76.6252 361.504 76.9432C361.161 77.2367 360.782 77.518 360.367 77.7871Z" fill="#1B1B1F"/>
<path d="M386.901 79.7317C384.969 79.7317 383.465 79.3526 382.389 78.5943C381.338 77.8115 380.604 76.7597 380.189 75.4389C379.773 74.0935 379.565 72.577 379.565 70.8892V57.9007C379.565 56.2129 379.785 54.7208 380.225 53.4244C380.666 52.128 381.411 51.1129 382.463 50.3791C383.539 49.6453 385.018 49.2784 386.901 49.2784C388.783 49.2784 390.25 49.6453 391.302 50.3791C392.378 51.1129 393.136 52.128 393.576 53.4244C394.016 54.7208 394.236 56.2129 394.236 57.9007V70.9259C394.236 72.6137 394.028 74.118 393.612 75.4389C393.197 76.7597 392.451 77.8115 391.375 78.5943C390.324 79.3526 388.832 79.7317 386.901 79.7317ZM386.901 78.0806C388.319 78.0806 389.407 77.7993 390.165 77.2367C390.947 76.6741 391.485 75.8914 391.779 74.8885C392.072 73.8612 392.219 72.6748 392.219 71.3295V57.6072C392.219 56.2618 392.072 55.0877 391.779 54.0848C391.485 53.082 390.96 52.3115 390.202 51.7733C389.444 51.2107 388.343 50.9294 386.901 50.9294C385.482 50.9294 384.382 51.2107 383.6 51.7733C382.842 52.3115 382.316 53.082 382.023 54.0848C381.729 55.0877 381.582 56.2618 381.582 57.6072V71.3295C381.582 72.6748 381.729 73.8612 382.023 74.8885C382.316 75.8914 382.842 76.6741 383.6 77.2367C384.382 77.7993 385.482 78.0806 386.901 78.0806Z" fill="#1B1B1F"/>
<path d="M403.025 79.3281V51.223H397.083V49.6086H410.8V51.223H405.005V79.3281H403.025Z" fill="#1B1B1F"/>
<path d="M414.287 79.3281V49.6086H421.255C423.04 49.6086 424.434 49.951 425.436 50.6359C426.439 51.2963 427.136 52.2014 427.527 53.351C427.943 54.5007 428.151 55.8093 428.151 57.2769C428.151 58.5978 427.943 59.8575 427.527 61.0561C427.136 62.2547 426.439 63.2331 425.436 63.9914C424.434 64.7496 423.052 65.1288 421.292 65.1288H416.267V79.3281H414.287ZM416.267 63.5878H420.852C422.05 63.5878 423.028 63.3798 423.786 62.964C424.568 62.5482 425.143 61.8878 425.51 60.9827C425.901 60.0532 426.097 58.818 426.097 57.2769C426.097 55.687 425.925 54.4518 425.583 53.5712C425.241 52.6661 424.691 52.0424 423.933 51.6999C423.175 51.333 422.16 51.1496 420.889 51.1496H416.267V63.5878Z" fill="#1B1B1F"/>
<path d="M432.051 79.3281V49.6086H433.848V74.9252L444.008 49.6086H445.658V79.3281H443.861V54.0115L433.738 79.3281H432.051Z" fill="#1B1B1F"/>
<path d="M450.776 79.3281L451.656 49.6086H453.637L459.908 76.4295L466.29 49.6086H468.344L469.188 79.3281H467.464L466.73 54.4151L460.679 79.3281H459.212L453.233 54.4518L452.5 79.3281H450.776Z" fill="#1B1B1F"/>
<path d="M473.803 82.7403L473.84 81.1626C475.038 81.1871 475.979 81.1137 476.664 80.9425C477.373 80.7957 477.898 80.5022 478.241 80.0619C478.583 79.6461 478.828 79.059 478.974 78.3008C479.145 77.518 479.292 76.5274 479.414 75.3288L472.776 49.6086H474.756L478.131 63.3309L480.405 72.9806L482.385 63.2575L485.356 49.6086H487.373L481.468 75.5123C481.224 76.6619 480.991 77.6648 480.771 78.5209C480.551 79.3526 480.295 80.0375 480.001 80.5756C479.708 81.1382 479.317 81.5785 478.828 81.8965C478.339 82.2389 477.691 82.4713 476.884 82.5936C476.077 82.7159 475.05 82.7648 473.803 82.7403Z" fill="#1B1B1F"/>
<path d="M490.863 79.3281V49.6086H492.66V74.9252L502.82 49.6086H504.47V79.3281H502.673V54.0115L492.55 79.3281H490.863ZM497.722 47.3704C496.499 47.3704 495.509 47.0402 494.751 46.3798C494.017 45.7194 493.626 44.692 493.577 43.2978H494.934C494.959 44.3496 495.24 45.0834 495.778 45.4992C496.316 45.915 496.964 46.123 497.722 46.123C498.48 46.123 499.128 45.915 499.665 45.4992C500.203 45.0834 500.509 44.3496 500.582 43.2978H501.939C501.89 44.692 501.475 45.7194 500.692 46.3798C499.934 47.0402 498.944 47.3704 497.722 47.3704Z" fill="#1B1B1F"/>
<path d="M513.879 79.3281V51.223H507.937V49.6086H521.654V51.223H515.859V79.3281H513.879Z" fill="#1B1B1F"/>
<path d="M525.104 79.3281V49.6086H535.374V51.223H527.121V63.1475H533.907V64.6885H527.121V77.7504H535.484V79.3281H525.104Z" fill="#1B1B1F"/>
<path d="M546.141 79.7317C544.185 79.7317 542.681 79.3281 541.63 78.5209C540.603 77.7137 539.894 76.6374 539.503 75.2921C539.112 73.9223 538.916 72.418 538.916 70.7791V58.1575C538.916 56.4453 539.124 54.9287 539.539 53.6079C539.955 52.2625 540.689 51.2107 541.74 50.4525C542.791 49.6697 544.258 49.2784 546.141 49.2784C547.877 49.2784 549.234 49.6208 550.212 50.3057C551.19 50.9906 551.887 51.969 552.303 53.241C552.719 54.4884 552.926 55.9561 552.926 57.6439V59.1482H551.019V57.6439C551.019 56.2251 550.885 55.0266 550.616 54.0482C550.347 53.0453 549.858 52.2748 549.149 51.7366C548.44 51.1985 547.437 50.9294 546.141 50.9294C544.723 50.9294 543.635 51.223 542.877 51.81C542.119 52.3971 541.606 53.2165 541.337 54.2683C541.068 55.3201 540.933 56.5431 540.933 57.9374V71.0727C540.933 72.5403 541.08 73.8 541.373 74.8518C541.667 75.8792 542.192 76.6741 542.95 77.2367C543.708 77.7993 544.772 78.0806 546.141 78.0806C547.462 78.0806 548.476 77.7993 549.185 77.2367C549.894 76.6741 550.371 75.8914 550.616 74.8885C550.885 73.8612 551.019 72.6748 551.019 71.3295V69.5317H552.926V70.9993C552.926 72.6871 552.731 74.1914 552.34 75.5123C551.948 76.8331 551.264 77.8727 550.286 78.631C549.308 79.3648 547.926 79.7317 546.141 79.7317Z" fill="#1B1B1F"/>
<path d="M555.577 79.3281L561.482 65.7892C559.99 65.2266 558.914 64.2115 558.254 62.7439C557.594 61.2518 557.264 59.5273 557.264 57.5705C557.264 56.1518 557.484 54.8431 557.924 53.6446C558.389 52.446 559.171 51.4798 560.271 50.746C561.372 49.9877 562.9 49.6086 564.856 49.6086H571.348V79.3281H569.294V66.3763H564.746C564.526 66.3763 564.269 66.3763 563.976 66.3763C563.707 66.3518 563.474 66.3273 563.279 66.3029L557.814 79.3281H555.577ZM565.003 64.8352H569.294V51.1863H564.929C563.12 51.1863 561.714 51.6755 560.711 52.6539C559.733 53.6323 559.244 55.2712 559.244 57.5705C559.244 59.9676 559.684 61.7777 560.565 63.0007C561.445 64.2237 562.924 64.8352 565.003 64.8352Z" fill="#1B1B1F"/>
<path d="M583.774 79.3281V49.6086H598.261V79.3281H596.28V51.1496H585.754V79.3281H583.774Z" fill="#1B1B1F"/>
<path d="M603.76 79.3281V49.6086H610.728C612.513 49.6086 613.907 49.951 614.909 50.6359C615.912 51.2963 616.609 52.2014 617 53.351C617.416 54.5007 617.623 55.8093 617.623 57.2769C617.623 58.5978 617.416 59.8575 617 61.0561C616.609 62.2547 615.912 63.2331 614.909 63.9914C613.907 64.7496 612.525 65.1288 610.765 65.1288H605.74V79.3281H603.76ZM605.74 63.5878H610.325C611.523 63.5878 612.501 63.3798 613.259 62.964C614.041 62.5482 614.616 61.8878 614.983 60.9827C615.374 60.0532 615.57 58.818 615.57 57.2769C615.57 55.687 615.398 54.4518 615.056 53.5712C614.714 52.6661 614.164 52.0424 613.406 51.6999C612.648 51.333 611.633 51.1496 610.361 51.1496H605.74V63.5878Z" fill="#1B1B1F"/>
<path d="M619.339 79.3281L625.574 49.6086H627.885L634.156 79.3281H632.139L630.599 71.1094H622.897L621.32 79.3281H619.339ZM623.19 69.6417H630.342L626.748 52.0302L623.19 69.6417Z" fill="#1B1B1F"/>
<path d="M638.073 79.3281V49.6086H644.198C645.567 49.6086 646.692 49.8043 647.572 50.1956C648.477 50.5625 649.173 51.0884 649.662 51.7733C650.176 52.4582 650.53 53.2532 650.726 54.1582C650.946 55.0388 651.056 55.9928 651.056 57.0201C651.056 57.8028 650.958 58.6467 650.763 59.5518C650.592 60.4324 650.261 61.2151 649.772 61.9C649.283 62.5849 648.55 63.0496 647.572 63.2942C648.721 63.6367 649.589 64.2237 650.176 65.0554C650.787 65.887 651.191 66.8165 651.386 67.8439C651.606 68.8468 651.716 69.7885 651.716 70.6691C651.716 71.7943 651.631 72.8705 651.46 73.8979C651.313 74.9252 651.007 75.8547 650.543 76.6864C650.078 77.4936 649.406 78.1418 648.525 78.631C647.67 79.0957 646.52 79.3281 645.078 79.3281H638.073ZM640.053 77.7504H644.821C646.777 77.7504 648.085 77.1756 648.745 76.0259C649.43 74.8763 649.772 73.1029 649.772 70.7058C649.772 69.5072 649.626 68.4187 649.332 67.4403C649.063 66.4619 648.587 65.6791 647.902 65.0921C647.242 64.505 646.313 64.2115 645.114 64.2115H640.053V77.7504ZM640.053 62.6338H645.078C646.178 62.6338 647.022 62.377 647.609 61.8633C648.195 61.3496 648.599 60.677 648.819 59.8453C649.063 58.9892 649.186 58.0475 649.186 57.0201C649.186 55.9194 649.051 54.9287 648.782 54.0482C648.513 53.1676 647.987 52.4827 647.205 51.9935C646.447 51.4798 645.286 51.223 643.721 51.223H640.053V62.6338Z" fill="#1B1B1F"/>
<path d="M655.944 79.3281V49.6086H657.742V74.9252L667.901 49.6086H669.552V79.3281H667.754V54.0115L657.632 79.3281H655.944Z" fill="#1B1B1F"/>
<path d="M673.202 79.4015V77.8238C673.984 77.7749 674.632 77.677 675.146 77.5303C675.659 77.3835 676.075 77.041 676.393 76.5029C676.711 75.9648 676.98 75.0964 677.2 73.8979C677.42 72.6993 677.628 71.036 677.823 68.9079C678.043 66.7799 678.288 64.0403 678.557 60.6892L679.364 49.6086H690V79.3281H687.983V51.1496H681.234L680.501 60.6892C680.232 64.0403 679.987 66.841 679.767 69.0914C679.547 71.3173 679.29 73.1151 678.997 74.4849C678.728 75.8547 678.361 76.8943 677.897 77.6036C677.456 78.2885 676.857 78.7533 676.099 78.9979C675.341 79.2425 674.376 79.377 673.202 79.4015Z" fill="#1B1B1F"/>
<path d="M154.069 125C152.969 124.902 152.064 124.535 151.355 123.899C150.646 123.288 150.096 122.456 149.705 121.404C149.313 120.352 149.02 119.117 148.824 117.699C148.653 116.255 148.543 114.665 148.494 112.929C148.47 111.192 148.458 109.345 148.458 107.388C148.458 105.407 148.47 103.536 148.494 101.775C148.543 100.014 148.653 98.4114 148.824 96.9682C149.02 95.5006 149.313 94.2409 149.705 93.1891C150.096 92.1128 150.646 91.2812 151.355 90.6941C152.064 90.0826 152.969 89.7524 154.069 89.7035V91.1344C153.14 91.2567 152.419 91.7582 151.905 92.6387C151.392 93.4949 151.025 94.6567 150.805 96.1244C150.585 97.5675 150.45 99.2553 150.401 101.188C150.377 103.096 150.365 105.163 150.365 107.388C150.365 109.614 150.377 111.693 150.401 113.626C150.45 115.534 150.585 117.209 150.805 118.652C151.025 120.096 151.379 121.245 151.869 122.101C152.382 122.982 153.116 123.483 154.069 123.606V125Z" fill="#1B1B1F"/>
<path d="M157.943 119.606V89.8869H172.43V119.606H170.45V91.4279H159.924V119.606H157.943Z" fill="#1B1B1F"/>
<path d="M177.929 119.606V89.8869H184.898C186.683 89.8869 188.076 90.2294 189.079 90.9143C190.081 91.5747 190.778 92.4797 191.169 93.6294C191.585 94.779 191.793 96.0877 191.793 97.5553C191.793 98.8762 191.585 100.136 191.169 101.334C190.778 102.533 190.081 103.511 189.079 104.27C188.076 105.028 186.695 105.407 184.934 105.407H179.91V119.606H177.929ZM179.91 103.866H184.494C185.692 103.866 186.67 103.658 187.428 103.242C188.211 102.827 188.785 102.166 189.152 101.261C189.543 100.332 189.739 99.0963 189.739 97.5553C189.739 95.9654 189.568 94.7301 189.226 93.8495C188.883 92.9445 188.333 92.3207 187.575 91.9783C186.817 91.6114 185.802 91.4279 184.531 91.4279H179.91V103.866Z" fill="#1B1B1F"/>
<path d="M195.694 119.606V89.8869H197.491V115.204L207.65 89.8869H209.301V119.606H207.503V94.2898L197.381 119.606H195.694Z" fill="#1B1B1F"/>
<path d="M214.748 119.606V89.8869H216.766V103.279H227.182V89.8869H229.162V119.606H227.182V104.82H216.766V119.606H214.748Z" fill="#1B1B1F"/>
<path d="M249.664 124.523L249.444 119.606H234.627V89.8869H236.644V118.065H247.207V89.8869H249.224V118.065H251.278V124.523H249.664Z" fill="#1B1B1F"/>
<path d="M254.971 119.606V89.8869H256.768V115.204L266.928 89.8869H268.578V119.606H266.781V94.2898L256.658 119.606H254.971Z" fill="#1B1B1F"/>
<path d="M274.062 119.606V89.8869H288.55V119.606H286.569V91.4279H276.043V119.606H274.062Z" fill="#1B1B1F"/>
<path d="M294.085 119.606V89.8869H296.066V119.606H294.085Z" fill="#1B1B1F"/>
<path d="M301.606 119.606V89.8869H307.731C309.1 89.8869 310.225 90.0826 311.105 90.474C312.01 90.8409 312.707 91.3668 313.196 92.0517C313.709 92.7366 314.064 93.5315 314.259 94.4366C314.479 95.3172 314.589 96.2711 314.589 97.2985C314.589 98.0812 314.492 98.9251 314.296 99.8301C314.125 100.711 313.795 101.493 313.306 102.178C312.817 102.863 312.083 103.328 311.105 103.573C312.254 103.915 313.122 104.502 313.709 105.334C314.32 106.165 314.724 107.095 314.92 108.122C315.14 109.125 315.25 110.067 315.25 110.947C315.25 112.073 315.164 113.149 314.993 114.176C314.846 115.204 314.541 116.133 314.076 116.965C313.611 117.772 312.939 118.42 312.059 118.909C311.203 119.374 310.054 119.606 308.611 119.606H301.606ZM303.586 118.029H308.354C310.31 118.029 311.619 117.454 312.279 116.304C312.963 115.155 313.306 113.381 313.306 110.984C313.306 109.786 313.159 108.697 312.866 107.719C312.597 106.74 312.12 105.957 311.435 105.37C310.775 104.783 309.846 104.49 308.648 104.49H303.586V118.029ZM303.586 102.912H308.611C309.711 102.912 310.555 102.655 311.142 102.142C311.729 101.628 312.132 100.955 312.352 100.124C312.597 99.2675 312.719 98.3258 312.719 97.2985C312.719 96.1977 312.584 95.2071 312.315 94.3265C312.047 93.4459 311.521 92.761 310.738 92.2718C309.98 91.7582 308.819 91.5013 307.254 91.5013H303.586V102.912Z" fill="#1B1B1F"/>
<path d="M317.901 125V123.606C318.83 123.483 319.551 122.982 320.065 122.101C320.578 121.245 320.945 120.096 321.165 118.652C321.385 117.185 321.507 115.497 321.532 113.589C321.581 111.657 321.605 109.578 321.605 107.352C321.605 105.126 321.581 103.059 321.532 101.151C321.507 99.2186 321.385 97.5308 321.165 96.0877C320.945 94.6445 320.578 93.4949 320.065 92.6387C319.551 91.7582 318.83 91.2567 317.901 91.1344V89.7035C319.001 89.7524 319.906 90.0826 320.615 90.6941C321.324 91.2812 321.874 92.1128 322.265 93.1891C322.681 94.2409 322.974 95.4884 323.145 96.9316C323.341 98.3747 323.451 99.9769 323.476 101.738C323.524 103.499 323.549 105.37 323.549 107.352C323.549 109.309 323.524 111.155 323.476 112.892C323.451 114.629 323.341 116.219 323.145 117.662C322.974 119.105 322.681 120.352 322.265 121.404C321.874 122.456 321.324 123.288 320.615 123.899C319.906 124.535 319.001 124.902 317.901 125Z" fill="#1B1B1F"/>
<path d="M335.811 119.606V89.8869H341.936C343.306 89.8869 344.43 90.0826 345.311 90.474C346.215 90.8409 346.912 91.3668 347.401 92.0517C347.915 92.7366 348.269 93.5315 348.465 94.4366C348.685 95.3172 348.795 96.2711 348.795 97.2985C348.795 98.0812 348.697 98.9251 348.501 99.8301C348.33 100.711 348 101.493 347.511 102.178C347.022 102.863 346.289 103.328 345.311 103.573C346.46 103.915 347.328 104.502 347.915 105.334C348.526 106.165 348.929 107.095 349.125 108.122C349.345 109.125 349.455 110.067 349.455 110.947C349.455 112.073 349.369 113.149 349.198 114.176C349.052 115.204 348.746 116.133 348.281 116.965C347.817 117.772 347.144 118.42 346.264 118.909C345.408 119.374 344.259 119.606 342.817 119.606H335.811ZM337.792 118.029H342.56C344.516 118.029 345.824 117.454 346.484 116.304C347.169 115.155 347.511 113.381 347.511 110.984C347.511 109.786 347.364 108.697 347.071 107.719C346.802 106.74 346.325 105.957 345.641 105.37C344.98 104.783 344.051 104.49 342.853 104.49H337.792V118.029ZM337.792 102.912H342.817C343.917 102.912 344.76 102.655 345.347 102.142C345.934 101.628 346.337 100.955 346.558 100.124C346.802 99.2675 346.924 98.3258 346.924 97.2985C346.924 96.1977 346.79 95.2071 346.521 94.3265C346.252 93.4459 345.726 92.761 344.944 92.2718C344.186 91.7582 343.024 91.5013 341.46 91.5013H337.792V102.912Z" fill="#1B1B1F"/>
<path d="M353.757 119.606V89.8869H355.737V119.606H353.757Z" fill="#1B1B1F"/>
<path d="M358.857 124.523V118.065H359.92C360.409 117.747 360.849 117.429 361.241 117.111C361.656 116.769 362.023 116.268 362.341 115.607C362.659 114.947 362.952 114.017 363.221 112.819C363.515 111.596 363.784 109.957 364.028 107.902C364.273 105.823 364.517 103.193 364.762 100.014L365.532 89.8869H375.985V118.065H378.149V124.523H376.535L376.315 119.606H360.69L360.47 124.523H358.857ZM362.158 118.065H373.967V91.4279H367.366L366.669 100.38C366.424 103.56 366.168 106.178 365.899 108.232C365.654 110.263 365.397 111.877 365.128 113.076C364.859 114.274 364.566 115.191 364.248 115.827C363.955 116.439 363.637 116.904 363.294 117.222C362.952 117.515 362.573 117.796 362.158 118.065Z" fill="#1B1B1F"/>
<path d="M381.98 119.606V89.8869H396.467V119.606H394.486V91.4279H383.96V119.606H381.98Z" fill="#1B1B1F"/>
<path d="M408.677 120.01C406.746 120.01 405.242 119.631 404.166 118.873C403.115 118.09 402.381 117.038 401.966 115.717C401.55 114.372 401.342 112.855 401.342 111.168V98.179C401.342 96.4913 401.562 94.9992 402.002 93.7028C402.442 92.4064 403.188 91.3913 404.24 90.6574C405.315 89.9236 406.795 89.5567 408.677 89.5567C410.56 89.5567 412.027 89.9236 413.079 90.6574C414.155 91.3913 414.913 92.4064 415.353 93.7028C415.793 94.9992 416.013 96.4913 416.013 98.179V111.204C416.013 112.892 415.805 114.396 415.389 115.717C414.974 117.038 414.228 118.09 413.152 118.873C412.101 119.631 410.609 120.01 408.677 120.01ZM408.677 118.359C410.096 118.359 411.184 118.078 411.942 117.515C412.724 116.952 413.262 116.17 413.555 115.167C413.849 114.14 413.996 112.953 413.996 111.608V97.8855C413.996 96.5402 413.849 95.3661 413.555 94.3632C413.262 93.3603 412.736 92.5898 411.978 92.0517C411.22 91.4891 410.12 91.2078 408.677 91.2078C407.259 91.2078 406.159 91.4891 405.377 92.0517C404.619 92.5898 404.093 93.3603 403.799 94.3632C403.506 95.3661 403.359 96.5402 403.359 97.8855V111.608C403.359 112.953 403.506 114.14 403.799 115.167C404.093 116.17 404.619 116.952 405.377 117.515C406.159 118.078 407.259 118.359 408.677 118.359Z" fill="#1B1B1F"/>
<path d="M420.877 119.606V89.8869H427.002C428.371 89.8869 429.496 90.0826 430.376 90.474C431.281 90.8409 431.978 91.3668 432.467 92.0517C432.98 92.7366 433.335 93.5315 433.531 94.4366C433.751 95.3172 433.861 96.2711 433.861 97.2985C433.861 98.0812 433.763 98.9251 433.567 99.8301C433.396 100.711 433.066 101.493 432.577 102.178C432.088 102.863 431.354 103.328 430.376 103.573C431.526 103.915 432.394 104.502 432.98 105.334C433.592 106.165 433.995 107.095 434.191 108.122C434.411 109.125 434.521 110.067 434.521 110.947C434.521 112.073 434.435 113.149 434.264 114.176C434.117 115.204 433.812 116.133 433.347 116.965C432.883 117.772 432.21 118.42 431.33 118.909C430.474 119.374 429.325 119.606 427.882 119.606H420.877ZM422.858 118.029H427.626C429.582 118.029 430.89 117.454 431.55 116.304C432.235 115.155 432.577 113.381 432.577 110.984C432.577 109.786 432.43 108.697 432.137 107.719C431.868 106.74 431.391 105.957 430.706 105.37C430.046 104.783 429.117 104.49 427.919 104.49H422.858V118.029ZM422.858 102.912H427.882C428.983 102.912 429.826 102.655 430.413 102.142C431 101.628 431.403 100.955 431.623 100.124C431.868 99.2675 431.99 98.3258 431.99 97.2985C431.99 96.1977 431.856 95.2071 431.587 94.3265C431.318 93.4459 430.792 92.761 430.01 92.2718C429.252 91.7582 428.09 91.5013 426.525 91.5013H422.858V102.912Z" fill="#1B1B1F"/>
<path d="M438.822 119.606V89.8869H440.803V119.606H438.822Z" fill="#1B1B1F"/>
<path d="M443.922 124.523V118.065H444.986C445.475 117.747 445.915 117.429 446.306 117.111C446.722 116.769 447.089 116.268 447.407 115.607C447.725 114.947 448.018 114.017 448.287 112.819C448.58 111.596 448.849 109.957 449.094 107.902C449.338 105.823 449.583 103.193 449.827 100.014L450.598 89.8869H461.051V118.065H463.214V124.523H461.601L461.381 119.606H445.756L445.536 124.523H443.922ZM447.223 118.065H459.033V91.4279H452.431L451.735 100.38C451.49 103.56 451.233 106.178 450.964 108.232C450.72 110.263 450.463 111.877 450.194 113.076C449.925 114.274 449.632 115.191 449.314 115.827C449.021 116.439 448.703 116.904 448.36 117.222C448.018 117.515 447.639 117.796 447.223 118.065Z" fill="#1B1B1F"/>
<path d="M465.468 119.606L471.703 89.8869H474.014L480.286 119.606H478.269L476.728 111.388H469.026L467.449 119.606H465.468ZM469.319 109.92H476.471L472.877 92.3085L469.319 109.92Z" fill="#1B1B1F"/>
<path d="M482.368 119.68V118.102C483.15 118.053 483.798 117.955 484.312 117.809C484.825 117.662 485.241 117.319 485.559 116.781C485.877 116.243 486.146 115.375 486.366 114.176C486.586 112.978 486.794 111.314 486.989 109.186C487.209 107.058 487.454 104.319 487.723 100.968L488.53 89.8869H499.166V119.606H497.149V91.4279H490.4L489.667 100.968C489.398 104.319 489.153 107.119 488.933 109.37C488.713 111.596 488.456 113.393 488.163 114.763C487.894 116.133 487.527 117.173 487.063 117.882C486.623 118.567 486.023 119.032 485.266 119.276C484.508 119.521 483.542 119.655 482.368 119.68Z" fill="#1B1B1F"/>
<path d="M504.618 119.606V89.8869H506.598V102.435H509.936C511.77 102.435 513.273 102.765 514.447 103.426C515.621 104.062 516.489 105.028 517.051 106.324C517.613 107.621 517.895 109.247 517.895 111.204C517.895 112.427 517.748 113.552 517.455 114.58C517.186 115.607 516.733 116.5 516.098 117.258C515.486 117.992 514.679 118.567 513.677 118.983C512.674 119.399 511.452 119.606 510.009 119.606H504.618ZM506.598 117.992H510.082C511.525 117.992 512.662 117.735 513.493 117.222C514.349 116.683 514.961 115.913 515.327 114.91C515.694 113.883 515.877 112.635 515.877 111.168C515.877 108.942 515.45 107.205 514.594 105.957C513.738 104.686 512.222 104.05 510.046 104.05H506.598V117.992Z" fill="#1B1B1F"/>
<path d="M521.487 119.606V89.8869H523.504V103.279H533.92V89.8869H535.901V119.606H533.92V104.82H523.504V119.606H521.487Z" fill="#1B1B1F"/>
<path d="M548.114 120.01C546.182 120.01 544.678 119.631 543.603 118.873C542.551 118.09 541.818 117.038 541.402 115.717C540.986 114.372 540.778 112.855 540.778 111.168V98.179C540.778 96.4913 540.999 94.9992 541.439 93.7028C541.879 92.4064 542.624 91.3913 543.676 90.6574C544.752 89.9236 546.231 89.5567 548.114 89.5567C549.997 89.5567 551.464 89.9236 552.515 90.6574C553.591 91.3913 554.349 92.4064 554.789 93.7028C555.229 94.9992 555.449 96.4913 555.449 98.179V111.204C555.449 112.892 555.241 114.396 554.826 115.717C554.41 117.038 553.664 118.09 552.588 118.873C551.537 119.631 550.045 120.01 548.114 120.01ZM548.114 118.359C549.532 118.359 550.62 118.078 551.378 117.515C552.16 116.952 552.698 116.17 552.992 115.167C553.285 114.14 553.432 112.953 553.432 111.608V97.8855C553.432 96.5402 553.285 95.3661 552.992 94.3632C552.698 93.3603 552.173 92.5898 551.415 92.0517C550.657 91.4891 549.556 91.2078 548.114 91.2078C546.696 91.2078 545.595 91.4891 544.813 92.0517C544.055 92.5898 543.529 93.3603 543.236 94.3632C542.942 95.3661 542.796 96.5402 542.796 97.8855V111.608C542.796 112.953 542.942 114.14 543.236 115.167C543.529 116.17 544.055 116.952 544.813 117.515C545.595 118.078 546.696 118.359 548.114 118.359Z" fill="#1B1B1F"/>
<path d="M560.35 119.606V89.8869H562.331V119.606H560.35ZM563.284 84.1632V81.3747H565.338V84.1632H563.284ZM557.416 84.1632V81.3747H559.433V84.1632H557.416Z" fill="#1B1B1F"/>
<path d="M574.819 119.606V89.8869H584.905V91.5013H576.8V119.606H574.819Z" fill="#1B1B1F"/>
<path d="M588.358 119.606V89.8869H595.327C597.112 89.8869 598.506 90.2294 599.508 90.9143C600.511 91.5747 601.207 92.4797 601.599 93.6294C602.014 94.779 602.222 96.0877 602.222 97.5553C602.222 98.8762 602.014 100.136 601.599 101.334C601.207 102.533 600.511 103.511 599.508 104.27C598.506 105.028 597.124 105.407 595.364 105.407H590.339V119.606H588.358ZM590.339 103.866H594.923C596.122 103.866 597.1 103.658 597.858 103.242C598.64 102.827 599.215 102.166 599.581 101.261C599.973 100.332 600.168 99.0963 600.168 97.5553C600.168 95.9654 599.997 94.7301 599.655 93.8495C599.312 92.9445 598.762 92.3207 598.004 91.9783C597.246 91.6114 596.232 91.4279 594.96 91.4279H590.339V103.866Z" fill="#1B1B1F"/>
<path d="M606.123 119.606V89.8869H607.92V115.204L618.079 89.8869H619.73V119.606H617.933V94.2898L607.81 119.606H606.123Z" fill="#1B1B1F"/>
</svg>
